<?xml version="1.0" encoding="UTF-8"?>
<svg version="1.1" xmlns="http://www.w3.org/2000/svg" width="512" height="512">
<path d="M0 0 C1.52015169 -0.01740664 3.0402683 -0.03814538 4.56033325 -0.06195068 C8.67662609 -0.11538096 12.7914472 -0.11784114 16.90801907 -0.10769749 C20.3521177 -0.10340773 23.79592179 -0.12298019 27.23995709 -0.14211917 C35.37145998 -0.18645808 43.50222385 -0.18827659 51.63378906 -0.1640625 C60.00252376 -0.13992372 68.36856492 -0.18909289 76.73684001 -0.27434278 C83.93811618 -0.34498674 91.13853861 -0.36878437 98.34014821 -0.35579181 C102.6341549 -0.34856442 106.92624189 -0.35882605 111.21993256 -0.41464996 C115.26296823 -0.46524975 119.30183701 -0.4569501 123.3448143 -0.40500641 C124.82054222 -0.39560215 126.29656972 -0.4062755 127.77195358 -0.4394989 C133.98166703 -0.56914731 139.51527381 -0.61077963 144.30094147 3.69815826 C147.15921689 6.63543842 149.5918094 9.83075085 152.05957031 13.09863281 C153.5418016 14.73985656 155.03870719 16.36814212 156.55957031 17.97363281 C162.04792 24.09675604 167.08139526 30.5589483 172.05957031 37.09863281 C172.7445459 37.9982373 172.7445459 37.9982373 173.44335938 38.91601562 C184.50708273 53.53396994 194.54794799 68.85224258 203.05957031 85.09863281 C203.74986328 86.41202637 203.74986328 86.41202637 204.45410156 87.75195312 C220.54061556 118.76836501 231.24863647 152.53639922 231.24487305 187.67919922 C231.24705834 189.96112771 231.26525852 192.2425708 231.28417969 194.52441406 C231.31285482 202.23266902 231.09623069 209.60510733 229.05957031 217.09863281 C225.02943254 218.44201207 222.35149802 217.10201898 218.49707031 215.78613281 C191.26448938 206.9647369 160.20744384 207.89300746 134.43652344 220.95556641 C128.13757996 224.35567178 123.9314823 228.38946028 121.05957031 235.09863281 C119.81319068 240.75453965 119.83770122 246.42056671 119.74316406 252.18457031 C119.71199242 253.76995102 119.71199242 253.76995102 119.68019104 255.38735962 C119.61503041 258.74938726 119.5559667 262.11149018 119.49707031 265.47363281 C119.45385323 267.75879671 119.41023793 270.04395312 119.36621094 272.32910156 C119.25938349 277.91886672 119.15755606 283.50870605 119.05957031 289.09863281 C100.83871388 289.19244352 82.61792089 289.26279077 64.39687443 289.3058815 C55.93482916 289.32642899 47.47293472 289.35439835 39.01098633 289.40039062 C31.62790787 289.4404996 24.24493875 289.46612226 16.86175436 289.47498679 C12.95929915 289.48016124 9.05715647 289.49215572 5.15480232 289.52155304 C-26.14361411 289.74822717 -26.14361411 289.74822717 -39.94042969 285.09863281 C-40.78776672 284.81826172 -41.63510376 284.53789062 -42.50811768 284.24902344 C-66.42061172 275.53474391 -85.25833589 257.23921547 -96.63183594 234.75488281 C-98.2371987 231.24642084 -99.63005598 227.72736002 -100.94042969 224.09863281 C-101.56304687 222.38160156 -101.56304687 222.38160156 -102.19824219 220.62988281 C-110.95061895 191.00645375 -104.30861754 155.65309719 -94.94042969 127.09863281 C-94.6895459 126.32422852 -94.43866211 125.54982422 -94.18017578 124.75195312 C-84.76753603 96.21742977 -69.8764971 69.12935978 -51.94042969 45.09863281 C-51.5048877 44.51146484 -51.0693457 43.92429688 -50.62060547 43.31933594 C-42.39032671 32.26968833 -33.48742499 21.78697215 -24.20605469 11.61035156 C-21.9821481 9.2903828 -21.9821481 9.2903828 -20.71317673 7.14197159 C-15.32730929 -0.6123437 -8.78015282 -0.06638999 0 0 Z M57.74707031 67.91113281 C55.09407317 71.35020319 54.94246176 74.08127418 54.99707031 78.28613281 C55.00609375 79.1871875 55.01511719 80.08824219 55.02441406 81.01660156 C55.03601563 81.70367187 55.04761719 82.39074219 55.05957031 83.09863281 C54.49109375 83.24558594 53.92261719 83.39253906 53.33691406 83.54394531 C43.75506299 86.32732108 39.18407599 91.21645997 34.22363281 99.73144531 C30.60709333 107.08588466 30.72027008 116.78915014 33.11816406 124.50488281 C37.29127469 133.46180318 43.2700191 139.56113518 52.43066406 143.33691406 C55.68527832 144.27993008 58.88514137 144.6850201 62.24707031 145.09863281 C67.70888909 145.77547458 71.04304441 146.29921642 75.05957031 150.09863281 C78.94617308 155.54363186 78.85024688 160.61508495 78.05957031 167.09863281 C75.87313332 171.71444424 73.56357227 173.82727366 69.05957031 176.09863281 C63.51148427 176.9274855 58.58816149 176.82270232 53.49707031 174.41113281 C49.60941975 170.72284895 48.11889328 167.73324402 47.12207031 162.53613281 C46.51327712 159.56640994 46.05481174 158.0916649 44.30957031 155.53613281 C41.28879899 153.60619558 39.58085157 153.5117526 36.05957031 154.09863281 C33.48001613 155.34253986 33.48001613 155.34253986 32.05957031 158.09863281 C30.63037273 166.09047238 32.99175604 173.43337679 37.37988281 180.10644531 C41.47620771 185.27721609 46.65592138 189.17681123 53.05957031 190.91113281 C54.04957031 191.00394531 54.04957031 191.00394531 55.05957031 191.09863281 C55.02476562 191.75089844 54.98996094 192.40316406 54.95410156 193.07519531 C54.78484847 198.53965241 54.92135467 202.39130935 58.05957031 207.09863281 C60.90040673 208.51905102 62.91434309 208.41315553 66.05957031 208.09863281 C68.9073765 205.8665685 69.90954697 204.54870283 71.05957031 201.09863281 C71.12759998 199.3706793 71.14452676 197.64027916 71.12207031 195.91113281 C71.11304688 195.01007813 71.10402344 194.10902344 71.09472656 193.18066406 C71.083125 192.49359375 71.07152344 191.80652344 71.05957031 191.09863281 C71.62804687 190.95167969 72.19652344 190.80472656 72.78222656 190.65332031 C82.36407764 187.86994454 86.93506464 182.98080566 91.89550781 174.46582031 C95.32333138 167.49514554 95.10096419 158.69080339 93.41113281 151.23925781 C89.86067328 141.46790763 83.71936108 135.63519529 74.39160156 131.27050781 C69.70369007 129.62176989 65.06117251 129.12692589 60.14160156 128.57910156 C55.98872549 127.93169503 54.09503015 126.97001374 51.05957031 124.09863281 C47.17296754 118.65363376 47.26889374 113.58218067 48.05957031 107.09863281 C50.2460073 102.48282139 52.55556836 100.36999196 57.05957031 98.09863281 C62.60765635 97.26978012 67.53097914 97.37456331 72.62207031 99.78613281 C76.50972087 103.47441668 78.00024734 106.4640216 78.99707031 111.66113281 C79.6058635 114.63085569 80.06432889 116.10560072 81.80957031 118.66113281 C84.83034164 120.59107005 86.53828906 120.68551302 90.05957031 120.09863281 C92.6391245 118.85472577 92.6391245 118.85472577 94.05957031 116.09863281 C95.4887679 108.10679325 93.12738458 100.76388883 88.73925781 94.09082031 C84.64293291 88.92004954 79.46321925 85.0204544 73.05957031 83.28613281 C72.06957031 83.19332031 72.06957031 83.19332031 71.05957031 83.09863281 C71.094375 82.44636719 71.12917969 81.79410156 71.16503906 81.12207031 C71.33429216 75.65761322 71.19778595 71.80595627 68.05957031 67.09863281 C64.26425553 65.20097542 61.08635067 65.29385902 57.74707031 67.91113281 Z " fill="#000000" transform="translate(136.9404296875,158.9013671875)"/>
<path d="M0 0 C8.31338459 3.7571047 15.97461945 4.74845845 24.77734375 1.8984375 C26.82507459 1.04955999 28.85379009 0.15197901 30.8515625 -0.80859375 C38.90429124 -4.61057868 50.27226817 -4.21795975 58.828125 -2.17578125 C61.4157727 -1.22485607 63.88447507 -0.17859038 66.375 1 C73.5910942 4.31963877 81.62282209 4.36731907 89.0625 1.65625 C90.29610059 1.11414644 91.52529959 0.56192136 92.75 0 C100.57792027 -3.5645086 107.81134741 -4.21263577 116.375 -3 C123.07728368 -0.28351349 127.42417107 4.13359808 130.671875 10.5703125 C138.89614587 30.53502802 134.92563937 53.72129849 126.9140625 73.05859375 C126.40617188 74.02925781 125.89828125 74.99992187 125.375 76 C125.05456223 76.7309683 124.73412445 77.46193661 124.40397644 78.21505547 C122.97098675 80.95983098 121.65595507 82.89119609 119.375 85 C114.75726181 86.36199968 110.16031737 86.23283142 105.38671875 86.16455078 C103.95712684 86.17675601 102.52756325 86.1927863 101.09805298 86.21234131 C97.2255193 86.25329378 93.35514864 86.23750179 89.48257828 86.20892954 C85.42542046 86.18610116 81.3684446 86.20728701 77.3112793 86.22140503 C70.49852324 86.23776726 63.68664598 86.21623334 56.87402344 86.17333984 C49.00371347 86.12435837 41.13550171 86.14022493 33.26524258 86.18977749 C26.50141949 86.23065493 19.73822714 86.23636634 12.97432041 86.21282947 C8.93739502 86.19881633 4.90145509 86.19687346 0.86459351 86.22665787 C-2.93176812 86.25271263 -6.72543258 86.23453797 -10.52150345 86.18260956 C-11.91219228 86.17073647 -13.30310925 86.1740827 -14.69370651 86.19397354 C-25.18622147 86.33018919 -25.18622147 86.33018919 -28.76416016 83.02228928 C-30.3193295 80.73426477 -31.51599208 78.52981921 -32.625 76 C-33.13289063 75.02933594 -33.64078125 74.05867188 -34.1640625 73.05859375 C-41.87534023 54.44612124 -46.21876187 31.84606751 -38.75390625 12.390625 C-35.85751097 6.25708205 -32.13127959 1.92210634 -26.625 -2 C-17.77416375 -4.95027875 -8.3114905 -3.81112247 0 0 Z " fill="#000000" transform="translate(153.625,19)"/>
<path d="M0 0 C0.65901094 -0.00438225 1.31802187 -0.00876451 1.99700284 -0.01327956 C4.21555438 -0.02668381 6.43406617 -0.03285005 8.65264893 -0.03897095 C10.23924948 -0.04687067 11.82584822 -0.05513954 13.41244507 -0.06375122 C18.63214396 -0.0899875 23.85185094 -0.10528096 29.07159424 -0.11953735 C30.86750545 -0.12489647 32.6634166 -0.13027398 34.4593277 -0.13566971 C41.92942484 -0.15730124 49.3995198 -0.1760382 56.86964035 -0.1872921 C67.57977184 -0.20353244 78.28954059 -0.23670901 88.99953532 -0.29369295 C96.52742036 -0.33238195 104.05520834 -0.35192358 111.5831902 -0.35721266 C116.08053487 -0.36086772 120.57749278 -0.37290489 125.07472992 -0.4053154 C129.30687435 -0.43537772 133.53839766 -0.44171466 137.77062607 -0.42993164 C139.3226363 -0.42971075 140.8746752 -0.43802916 142.42658615 -0.45558548 C155.61893171 -0.59668385 155.61893171 -0.59668385 159.55725098 2.56536865 C162.87279152 6.66692721 163.03903186 9.43139482 163.00909424 14.6031189 C162.4301189 18.71258519 160.65056994 20.36739592 157.64971924 23.15390015 C154.82569485 24.56591234 152.45903737 24.2929428 149.29943848 24.30780029 C148.31092207 24.31437367 148.31092207 24.31437367 147.30243564 24.32107985 C145.0838841 24.3344841 142.8653723 24.34065034 140.64678955 24.34677124 C139.060189 24.35467096 137.47359025 24.36293983 135.88699341 24.37155151 C130.66729451 24.39778779 125.44758753 24.41308125 120.22784424 24.42733765 C118.43193303 24.43269676 116.63602188 24.43807427 114.84011078 24.44347 C107.37001364 24.46510154 99.89991867 24.48383849 92.42979813 24.49509239 C81.71966663 24.51133273 71.00989789 24.5445093 60.29990315 24.60149324 C52.77201811 24.64018224 45.24423013 24.65972387 37.71624827 24.66501296 C33.21890361 24.66866801 28.72194569 24.68070519 24.22470856 24.71311569 C19.99256413 24.74317801 15.76104081 24.74951495 11.52881241 24.73773193 C9.97680217 24.73751104 8.42476328 24.74582946 6.87285233 24.76338577 C-6.31949324 24.90448414 -6.31949324 24.90448414 -10.2578125 21.74243164 C-13.57335304 17.64087308 -13.73959338 14.87640548 -13.70965576 9.7046814 C-13.13068042 5.5952151 -11.35113147 3.94040437 -8.35028076 1.15390015 C-5.52625638 -0.25811205 -3.1595989 0.01485749 0 0 Z " fill="#000000" transform="translate(125.35028076171875,119.84609985351563)"/>
<path d="M0 0 C0.69927612 0.00304138 1.39855225 0.00608276 2.11901855 0.00921631 C17.64492853 0.10895164 34.51770819 1.44872572 46.97265625 11.94140625 C48.1875 13.4375 48.1875 13.4375 48.75 16.3125 C48.11906718 19.81768232 47.12923621 21.13404214 44.265625 23.21484375 C30.75088585 31.16618464 15.7894632 33.01771801 0.375 32.875 C-0.32427612 32.87195862 -1.02355225 32.86891724 -1.74401855 32.86578369 C-17.26992853 32.76604836 -34.14270819 31.42627428 -46.59765625 20.93359375 C-47.8125 19.4375 -47.8125 19.4375 -48.375 16.5625 C-47.74406718 13.05731768 -46.75423621 11.74095786 -43.890625 9.66015625 C-30.37588585 1.70881536 -15.4144632 -0.14271801 0 0 Z " fill="#000000" transform="translate(319.8125,383.5625)"/>
<path d="M0 0 C0.69927612 0.00304138 1.39855225 0.00608276 2.11901855 0.00921631 C17.64492853 0.10895164 34.51770819 1.44872572 46.97265625 11.94140625 C48.1875 13.4375 48.1875 13.4375 48.75 16.3125 C48.11906718 19.81768232 47.12923621 21.13404214 44.265625 23.21484375 C30.75088585 31.16618464 15.7894632 33.01771801 0.375 32.875 C-0.32427612 32.87195862 -1.02355225 32.86891724 -1.74401855 32.86578369 C-17.26992853 32.76604836 -34.14270819 31.42627428 -46.59765625 20.93359375 C-47.8125 19.4375 -47.8125 19.4375 -48.375 16.5625 C-47.74406718 13.05731768 -46.75423621 11.74095786 -43.890625 9.66015625 C-30.37588585 1.70881536 -15.4144632 -0.14271801 0 0 Z " fill="#000000" transform="translate(431.8125,303.5625)"/>
<path d="M0 0 C1.06476563 0.39832031 2.12953125 0.79664063 3.2265625 1.20703125 C34.20119859 12.59550406 65.40268842 12.9354488 96 0 C96.17479953 3.56187657 96.28101143 7.12264773 96.375 10.6875 C96.42527344 11.69490234 96.47554688 12.70230469 96.52734375 13.74023438 C96.67122698 21.00633734 96.67122698 21.00633734 94.83105469 23.73046875 C82.61052246 34.34740173 63.50882457 35.57935567 48.1875 35.4375 C47.48822388 35.43445862 46.78894775 35.43141724 46.06848145 35.42828369 C30.38248808 35.32752002 14.24640016 33.79727414 1.37329102 23.72753906 C-0.49789388 21.37367163 -0.34465494 19.87510154 -0.29296875 16.89453125 C-0.28330078 15.91162109 -0.27363281 14.92871094 -0.26367188 13.91601562 C-0.23853516 12.89185547 -0.21339844 11.86769531 -0.1875 10.8125 C-0.17396484 9.77673828 -0.16042969 8.74097656 -0.14648438 7.67382812 C-0.11111389 5.11536301 -0.06175544 2.5579422 0 0 Z " fill="#000000" transform="translate(384,381)"/>
<path d="M0 0 C1.06476563 0.39832031 2.12953125 0.79664063 3.2265625 1.20703125 C34.96946732 12.87797412 64.6720191 11.97937285 96 0 C96.17479953 3.56187657 96.28101143 7.12264773 96.375 10.6875 C96.42527344 11.69490234 96.47554688 12.70230469 96.52734375 13.74023438 C96.67122698 21.00633734 96.67122698 21.00633734 94.83105469 23.73046875 C82.61052246 34.34740173 63.50882457 35.57935567 48.1875 35.4375 C47.48822388 35.43445862 46.78894775 35.43141724 46.06848145 35.42828369 C30.38248808 35.32752002 14.24640016 33.79727414 1.37329102 23.72753906 C-0.49789388 21.37367163 -0.34465494 19.87510154 -0.29296875 16.89453125 C-0.28330078 15.91162109 -0.27363281 14.92871094 -0.26367188 13.91601562 C-0.23853516 12.89185547 -0.21339844 11.86769531 -0.1875 10.8125 C-0.17396484 9.77673828 -0.16042969 8.74097656 -0.14648438 7.67382812 C-0.11111389 5.11536301 -0.06175544 2.5579422 0 0 Z " fill="#000000" transform="translate(384,461)"/>
<path d="M0 0 C1.06476563 0.39832031 2.12953125 0.79664063 3.2265625 1.20703125 C34.96946732 12.87797412 64.6720191 11.97937285 96 0 C96.17479953 3.56187657 96.28101143 7.12264773 96.375 10.6875 C96.42527344 11.69490234 96.47554688 12.70230469 96.52734375 13.74023438 C96.67122698 21.00633734 96.67122698 21.00633734 94.83105469 23.73046875 C82.61052246 34.34740173 63.50882457 35.57935567 48.1875 35.4375 C47.48822388 35.43445862 46.78894775 35.43141724 46.06848145 35.42828369 C30.38248808 35.32752002 14.24640016 33.79727414 1.37329102 23.72753906 C-0.49789388 21.37367163 -0.34465494 19.87510154 -0.29296875 16.89453125 C-0.28330078 15.91162109 -0.27363281 14.92871094 -0.26367188 13.91601562 C-0.23853516 12.89185547 -0.21339844 11.86769531 -0.1875 10.8125 C-0.17396484 9.77673828 -0.16042969 8.74097656 -0.14648438 7.67382812 C-0.11111389 5.11536301 -0.06175544 2.5579422 0 0 Z " fill="#000000" transform="translate(272,461)"/>
<path d="M0 0 C1.06476563 0.39832031 2.12953125 0.79664063 3.2265625 1.20703125 C34.96946732 12.87797412 64.6720191 11.97937285 96 0 C96.17479953 3.56187657 96.28101143 7.12264773 96.375 10.6875 C96.42527344 11.69490234 96.47554688 12.70230469 96.52734375 13.74023438 C96.67122698 21.00633734 96.67122698 21.00633734 94.83105469 23.73046875 C82.61052246 34.34740173 63.50882457 35.57935567 48.1875 35.4375 C47.48822388 35.43445862 46.78894775 35.43141724 46.06848145 35.42828369 C30.38248808 35.32752002 14.24640016 33.79727414 1.37329102 23.72753906 C-0.49789388 21.37367163 -0.34465494 19.87510154 -0.29296875 16.89453125 C-0.28330078 15.91162109 -0.27363281 14.92871094 -0.26367188 13.91601562 C-0.23853516 12.89185547 -0.21339844 11.86769531 -0.1875 10.8125 C-0.17396484 9.77673828 -0.16042969 8.74097656 -0.14648438 7.67382812 C-0.11111389 5.11536301 -0.06175544 2.5579422 0 0 Z " fill="#000000" transform="translate(384,421)"/>
<path d="M0 0 C1.06476563 0.39832031 2.12953125 0.79664063 3.2265625 1.20703125 C34.96946732 12.87797412 64.6720191 11.97937285 96 0 C96.17479953 3.56187657 96.28101143 7.12264773 96.375 10.6875 C96.42527344 11.69490234 96.47554688 12.70230469 96.52734375 13.74023438 C96.67122698 21.00633734 96.67122698 21.00633734 94.83105469 23.73046875 C82.61052246 34.34740173 63.50882457 35.57935567 48.1875 35.4375 C47.48822388 35.43445862 46.78894775 35.43141724 46.06848145 35.42828369 C30.38248808 35.32752002 14.24640016 33.79727414 1.37329102 23.72753906 C-0.49789388 21.37367163 -0.34465494 19.87510154 -0.29296875 16.89453125 C-0.28330078 15.91162109 -0.27363281 14.92871094 -0.26367188 13.91601562 C-0.23853516 12.89185547 -0.21339844 11.86769531 -0.1875 10.8125 C-0.17396484 9.77673828 -0.16042969 8.74097656 -0.14648438 7.67382812 C-0.11111389 5.11536301 -0.06175544 2.5579422 0 0 Z " fill="#000000" transform="translate(272,421)"/>
<path d="M0 0 C1.06476563 0.39832031 2.12953125 0.79664063 3.2265625 1.20703125 C34.96946732 12.87797412 64.6720191 11.97937285 96 0 C96.17479953 3.56187657 96.28101143 7.12264773 96.375 10.6875 C96.42527344 11.69490234 96.47554688 12.70230469 96.52734375 13.74023438 C96.67122698 21.00633734 96.67122698 21.00633734 94.83105469 23.73046875 C82.61052246 34.34740173 63.50882457 35.57935567 48.1875 35.4375 C47.48822388 35.43445862 46.78894775 35.43141724 46.06848145 35.42828369 C30.38248808 35.32752002 14.24640016 33.79727414 1.37329102 23.72753906 C-0.49789388 21.37367163 -0.34465494 19.87510154 -0.29296875 16.89453125 C-0.28330078 15.91162109 -0.27363281 14.92871094 -0.26367188 13.91601562 C-0.23853516 12.89185547 -0.21339844 11.86769531 -0.1875 10.8125 C-0.17396484 9.77673828 -0.16042969 8.74097656 -0.14648438 7.67382812 C-0.11111389 5.11536301 -0.06175544 2.5579422 0 0 Z " fill="#000000" transform="translate(384,341)"/>
</svg>
