<?xml version="1.0" encoding="UTF-8"?>
<svg version="1.1" xmlns="http://www.w3.org/2000/svg" width="512" height="512">
<path d="M0 0 C30.60307171 -8.85188661 69.5307602 -14.57716517 98.89505124 1.00565124 C121.84986827 14.25128144 141.05112545 34.39805491 159.6015625 53.0234375 C160.26427434 53.68786255 160.92698618 54.35228761 161.60978019 55.03684676 C178.16793253 71.65984597 194.28087966 88.68779439 210.22130308 105.90189388 C220.54576029 117.05121996 230.98803694 128.07511434 241.55224609 138.99755859 C242.25163101 139.72073148 242.95101593 140.44390437 243.67159434 141.18899159 C247.18406674 144.81969797 250.69849318 148.44850641 254.2136662 152.07659793 C275.55655789 174.11163205 296.7555465 196.27905261 317.69422269 218.69881368 C319.32494018 220.44357122 320.95788099 222.18622108 322.59141159 223.92834473 C325.11958738 226.6257384 327.64084023 229.32942733 330.15653066 232.03846784 C331.48808734 233.47011317 332.825126 234.89665387 334.16241419 236.32294691 C345.38665065 248.4656097 351.96236402 258.27972355 351.34375 275.12109375 C349.98525582 290.45046558 337.07946052 300.0762235 326.84790039 310.32910156 C325.51978197 311.66349521 324.19185022 312.99807467 322.86408997 314.33282471 C318.52883654 318.68897657 314.18837562 323.03992086 309.84765625 327.390625 C308.34860967 328.893723 306.84959593 330.39685376 305.35061455 331.90001678 C298.3127138 338.95692962 291.27243218 346.01145645 284.22919756 353.06304574 C276.112579 361.18945371 268.00432393 369.32408953 259.90299994 377.46574426 C253.62786598 383.77103978 247.34507373 390.06863808 241.05649751 396.3605268 C237.30557455 400.113798 233.55801701 403.87028901 229.81852913 407.63495636 C226.3035569 411.17321802 222.77917107 414.70182459 219.2474041 418.22332001 C217.95558912 419.51463991 216.66717156 420.8093692 215.38249207 422.10778809 C213.62348778 423.88454295 211.85246321 425.64841342 210.07801819 427.409729 C209.32638109 428.17781997 209.32638109 428.17781997 208.5595594 428.96142793 C201.81130909 435.59037131 193.32079651 438.92853371 183.890625 439.03515625 C174.09159378 438.56360663 166.6274266 436.67960189 159.34858131 429.92293167 C158.4734587 429.11876517 157.59833609 428.31459867 156.69669461 427.48606348 C155.80678539 426.66566253 154.91687617 425.84526158 154 425 C152.33324003 423.50621076 150.66327893 422.01598554 148.99011803 420.52936935 C119.13000587 393.91791649 89.6842308 366.9047396 60.67471649 339.36716799 C57.06995675 335.94592481 53.46200399 332.52806709 49.85205078 329.11230469 C48.77494014 328.09297218 48.77494014 328.09297218 47.67606969 327.05304709 C37.61558298 317.54562004 27.39958318 308.23947573 17.02927461 299.07143205 C-0.89626581 283.22351923 -18.45192693 267.05145058 -35.4140625 250.171875 C-36.07378874 249.51654762 -36.73351498 248.86122023 -37.41323292 248.18603444 C-75.66404217 210.06637671 -96.18112674 176.42146302 -96.34310913 121.41729736 C-95.72511774 31.29004103 -95.72511774 31.29004103 -76.99609375 10.80859375 C-71.61338724 5.57995398 -66.17664263 3.03897136 -59 1 C-51.51871674 12.68808388 -49.24415414 25.79979248 -46.31239319 39.15336609 C-37.06110266 83.44967624 -37.06110266 83.44967624 -10 118 C-0.95228129 123.49273744 10.45526033 126.30892138 21 124.4375 C25.34501475 123.19724059 28.45933821 120.74581935 32 118 C32.66 118 33.32 118 34 118 C34.43119141 117.13375 34.43119141 117.13375 34.87109375 116.25 C35.58402315 114.82907497 36.30441488 113.41184749 37.03515625 112 C37.54369141 111.01 37.54369141 111.01 38.0625 110 C38.57490234 109.01 38.57490234 109.01 39.09765625 108 C41.30748982 103.10201391 41.91003176 98.04805817 40.3515625 92.828125 C37.26846636 85.18626278 32.77418966 79.18175477 25.3125 75.5 C24.58675781 75.2009375 23.86101562 74.901875 23.11328125 74.59375 C17.43600172 70.31217875 15.70691137 61.65214045 13.75 55.125 C13.45843018 54.16263428 13.16686035 53.20026855 12.86645508 52.20874023 C8.93369417 38.84939327 5.92702277 25.24081402 2.8503418 11.66430664 C2.23800509 9.0256154 1.60641522 6.39777975 0.94685364 3.77098083 C0.63439194 2.52655716 0.32193024 1.28213348 0 0 Z " fill="#000000" transform="translate(161,64)"/>
<path d="M0 0 C8.56992569 7.14408016 14.75136933 16.03258119 19.81640625 25.87890625 C20.1213501 26.46091797 20.42629395 27.04292969 20.74047852 27.64257812 C26.67234496 39.75300489 29.47719263 53.36475472 32.44659424 66.43530273 C38.15808238 100.21571688 38.15808238 100.21571688 56.56640625 127.12890625 C60.1997917 128.5186999 63.75881162 129.24665871 67.56640625 130.12890625 C67.56640625 136.39890625 67.56640625 142.66890625 67.56640625 149.12890625 C58.23696414 148.85451089 51.46860543 148.18510266 43.56640625 143.12890625 C42.67953125 142.57203125 41.79265625 142.01515625 40.87890625 141.44140625 C22.16925495 122.73175495 18.39675741 90.7878054 12.8984375 66.13378906 C9.46664836 50.84152868 5.76013432 37.11208664 -3.43359375 24.12890625 C-4.51640625 22.58203125 -4.51640625 22.58203125 -5.62109375 21.00390625 C-14.03382737 11.51896149 -26.69616793 3.93966285 -39.48999023 2.97363281 C-55.79826728 2.15355945 -68.68162186 4.90049313 -81.36328125 15.78515625 C-91.73139795 25.57479433 -95.48827553 37.53786518 -95.90844727 51.56298828 C-96.05716045 69.32482846 -92.22797367 87.86066041 -79.43359375 101.12890625 C-74.41391156 105.38803053 -69.68455539 107.75505307 -63.18359375 108.8046875 C-61.43359375 109.12890625 -61.43359375 109.12890625 -60.43359375 110.12890625 C-60.34707764 111.54460748 -60.32654471 112.96450125 -60.3359375 114.3828125 C-60.33916016 115.23681641 -60.34238281 116.09082031 -60.34570312 116.97070312 C-60.35827148 118.31745117 -60.35827148 118.31745117 -60.37109375 119.69140625 C-60.37560547 120.59310547 -60.38011719 121.49480469 -60.38476562 122.42382812 C-60.3965915 124.65891939 -60.41307155 126.89388062 -60.43359375 129.12890625 C-74.84653851 128.81681493 -85.04745941 123.10005662 -95.328125 113.328125 C-103.97059532 104.21743958 -109.65551407 91.96402707 -113.43359375 80.12890625 C-113.75328125 79.13503906 -114.07296875 78.14117187 -114.40234375 77.1171875 C-119.74831426 56.9955485 -117.95276597 34.25633934 -108.125 15.90625 C-98.10973343 -0.53914152 -83.14513017 -11.32012253 -64.6875 -16.1796875 C-40.90646562 -21.23280045 -18.99475991 -14.60431781 0 0 Z " fill="#000000" transform="translate(116.43359375,26.87109375)"/>
</svg>
