<?xml version="1.0" encoding="UTF-8"?>
<svg version="1.1" xmlns="http://www.w3.org/2000/svg" width="450" height="360">
<path d="M0 0 C148.5 0 297 0 450 0 C450 118.8 450 237.6 450 360 C301.5 360 153 360 0 360 C0 241.2 0 122.4 0 0 Z " fill="#FEFEFE" transform="translate(0,0)"/>
<path d="M0 0 C1.1849556 -0.01283524 2.36991119 -0.02567047 3.59077454 -0.03889465 C4.87719345 -0.04628159 6.16361237 -0.05366852 7.48901367 -0.0612793 C8.8060881 -0.06935104 10.12316254 -0.07742279 11.48014832 -0.08573914 C14.27192049 -0.10076665 17.06366721 -0.11060417 19.85546875 -0.11816406 C23.42671547 -0.12922181 26.99733792 -0.16361361 30.56836414 -0.20333576 C33.97938897 -0.23581183 37.39034617 -0.24028173 40.80151367 -0.2487793 C42.722033 -0.27504143 42.722033 -0.27504143 44.68135071 -0.30183411 C45.87576279 -0.29890854 47.07017487 -0.29598297 48.30078125 -0.29296875 C49.34953934 -0.29883499 50.39829742 -0.30470123 51.47883606 -0.31074524 C55.07319224 0.30103197 56.73986712 1.67865887 59.34448242 4.17700195 C60.577654 6.64334512 60.46759266 8.25251369 60.46473694 11.01113892 C60.46679893 12.54243187 60.46679893 12.54243187 60.46890259 14.10466003 C60.46350967 15.79103325 60.46350967 15.79103325 60.45800781 17.51147461 C60.45815384 18.6919487 60.45829987 19.87242279 60.45845032 21.08866882 C60.45787201 24.3301997 60.45284825 27.5716877 60.44587636 30.81321001 C60.43963548 34.19915106 60.43903844 37.5850929 60.43785095 40.97103882 C60.43473981 47.38481205 60.42652933 53.79856829 60.41650146 60.21233404 C60.40533361 67.51332742 60.39982818 74.8143216 60.39480603 82.1153214 C60.38434655 97.13589106 60.36675128 112.15644481 60.34448242 127.17700195 C60.95391693 127.17256073 61.56335144 127.16811951 62.19125366 127.1635437 C68.51737124 127.11939788 74.84344527 127.08917208 81.16967773 127.06713867 C83.53265153 127.05706272 85.89561281 127.04340166 88.25854492 127.02612305 C91.6492013 127.00194471 95.03969327 126.99053496 98.43041992 126.98168945 C99.49191254 126.97136688 100.55340515 126.96104431 101.64706421 126.95040894 C103.11836288 126.95018234 103.11836288 126.95018234 104.61938477 126.94995117 C105.91844254 126.94328934 105.91844254 126.94328934 107.2437439 126.93649292 C109.34448242 127.17700195 109.34448242 127.17700195 111.34448242 129.17700195 C111.2520806 134.30530302 108.00215423 137.65427077 104.96948242 141.48950195 C100.78911049 146.91245126 96.74591679 152.38186399 92.90698242 158.05200195 C88.46942637 164.5857183 83.89132142 171.00427124 79.25097656 177.39526367 C75.57532033 182.46157667 71.94366697 187.55611428 68.34448242 192.67700195 C63.68689375 199.30117928 58.96262867 205.87423043 54.2109375 212.43115234 C50.44661031 217.63257311 46.72676873 222.86349091 43.03198242 228.11450195 C28.34843698 248.97164761 28.34843698 248.97164761 24.59448242 249.73950195 C18.7555577 248.72891883 15.80444019 242.88626959 12.48510742 238.2668457 C11.5180685 236.88517228 10.55463846 235.50096728 9.59448242 234.11450195 C8.53754727 232.60253392 7.48025055 231.09081858 6.42260742 229.5793457 C5.9024707 228.83410645 5.38233398 228.08886719 4.84643555 227.32104492 C2.70045645 224.25765279 0.52446903 221.21624043 -1.65551758 218.17700195 C-5.28423653 213.11077724 -8.88125483 208.02299994 -12.46801758 202.92700195 C-16.65580561 196.97991122 -20.88814455 191.06722361 -25.15551758 185.17700195 C-30.88426134 177.26802987 -36.53224112 169.30495884 -42.1496582 161.31665039 C-44.23270649 158.35688463 -46.32113949 155.40093928 -48.41040039 152.44555664 C-49.4350255 150.99437914 -50.45786381 149.54193812 -51.47875977 148.08813477 C-53.61969484 145.0409231 -55.77521047 142.0162145 -57.99926758 139.02856445 C-58.64895508 138.14942383 -59.29864258 137.2702832 -59.96801758 136.36450195 C-60.52102539 135.63618164 -61.0740332 134.90786133 -61.64379883 134.1574707 C-62.65551758 132.17700195 -62.65551758 132.17700195 -62.38598633 129.9777832 C-61.65551758 128.17700195 -61.65551758 128.17700195 -60.65551758 127.17700195 C-59.12068788 127.08380746 -57.58159675 127.05954395 -56.04394531 127.06347656 C-55.063004 127.06355209 -54.08206268 127.06362762 -53.07139587 127.06370544 C-52.00474197 127.06886673 -50.93808807 127.07402802 -49.83911133 127.0793457 C-48.75292007 127.08076065 -47.66672882 127.0821756 -46.54762268 127.08363342 C-43.06272683 127.08925147 -39.57789416 127.10180703 -36.09301758 127.11450195 C-33.73689871 127.11951463 -31.38077884 127.12407794 -29.0246582 127.12817383 C-23.23492294 127.13922676 -17.44522477 127.15598244 -11.65551758 127.17700195 C-11.65920475 126.55800931 -11.66289192 125.93901667 -11.66669083 125.30126667 C-11.75504673 110.23646206 -11.82122942 95.17173699 -11.86276627 80.10674 C-11.88338736 72.82139083 -11.91149905 65.53621468 -11.95727539 58.25097656 C-11.99715733 51.90079386 -12.02295369 45.55073646 -12.03187156 39.200432 C-12.03708411 35.83824984 -12.04932531 32.47642613 -12.07843781 29.1143589 C-12.10740587 25.36003852 -12.11147616 21.60646465 -12.10961914 17.85205078 C-12.12400024 16.7385878 -12.13838135 15.62512482 -12.15319824 14.47792053 C-12.11274852 6.93782559 -12.11274852 6.93782559 -9.75213623 3.0098114 C-6.38843176 0.06934852 -4.39971192 0.04139226 0 0 Z " fill="#010101" transform="translate(200.655517578125,54.822998046875)"/>
<path d="M0 0 C0.33 0.99 0.66 1.98 1 3 C0.01 4.485 0.01 4.485 -1 6 C-1.66 6 -2.32 6 -3 6 C-3.66 7.32 -4.32 8.64 -5 10 C-5 6.60406522 -4.47834052 5.93380119 -2.5 3.3125 C-2.0359375 2.68988281 -1.571875 2.06726563 -1.09375 1.42578125 C-0.7328125 0.95527344 -0.371875 0.48476562 0 0 Z " fill="#E4E4E4" transform="translate(297,207)"/>
</svg>
