<?xml version="1.0" encoding="UTF-8"?>
<svg version="1.1" xmlns="http://www.w3.org/2000/svg" width="1200" height="1200">
<path d="M0 0 C396 0 792 0 1200 0 C1200 396 1200 792 1200 1200 C804 1200 408 1200 0 1200 C0 804 0 408 0 0 Z " fill="#FEFEFE" transform="translate(0,0)"/>
<path d="M0 0 C41.58 0 83.16 0 126 0 C126 63.36 126 126.72 126 192 C128.475 192.99 128.475 192.99 131 194 C132.59030487 194.85514175 134.16272728 195.74411571 135.71875 196.66015625 C137.09474365 197.46658569 137.09474365 197.46658569 138.49853516 198.28930664 C139.48901855 198.87446045 140.47950195 199.45961426 141.5 200.0625 C142.54591309 200.67665771 143.59182617 201.29081543 144.66943359 201.92358398 C146.92984264 203.25109681 149.18952111 204.57978049 151.44824219 205.91015625 C155.04789112 208.029499 158.65239746 210.14048543 162.2578125 212.25 C173.28966966 218.70617339 184.3129345 225.17640703 195.3125 231.6875 C202.71373446 236.06837526 210.13128775 240.42017082 217.5625 244.75 C255.32163558 266.75267844 255.32163558 266.75267844 271.68554688 276.61816406 C282.05698757 282.85889561 292.53517995 288.9177106 303 295 C317.03820864 303.16298401 331.04664945 311.37289015 345.00512695 319.67138672 C350.31286343 322.82483713 355.62535275 325.96182064 361 329 C360.31249125 332.94107131 358.40287174 336.14027004 356.4375 339.5625 C356.04820313 340.24739502 355.65890625 340.93229004 355.2578125 341.63793945 C350.74255018 349.53197529 346.08402677 357.3428604 341.43603516 365.15917969 C336.36246065 373.69148696 331.32664213 382.2451417 326.3125 390.8125 C321.16040546 399.61279331 316.00010486 408.40806819 310.8125 417.1875 C310.30823486 418.04126221 309.80396973 418.89502441 309.28442383 419.7746582 C305.88015902 425.53083567 302.44671235 431.26914781 299 437 C294 436 294 436 277 426 C276.67 598.92 276.34 771.84 276 950 C160.17 950 44.34 950 -75 950 C-75 826.25 -75 702.5 -75 575 C-140.67 575 -206.34 575 -274 575 C-274 698.75 -274 822.5 -274 950 C-389.5 950 -505 950 -624 950 C-624.33 777.08 -624.66 604.16 -625 426 C-634.53933593 431.43283088 -634.53933593 431.43283088 -644 437 C-644.99 437 -645.98 437 -647 437 C-648.69482422 434.68701172 -648.69482422 434.68701172 -650.5546875 431.4296875 C-650.89223053 430.84615509 -651.22977356 430.26262268 -651.57754517 429.66140747 C-652.68701734 427.73833714 -653.78076881 425.80677626 -654.875 423.875 C-655.64529027 422.53446939 -656.41678513 421.19463027 -657.18945312 419.85546875 C-658.74375087 417.15977553 -660.29315132 414.4613647 -661.83886719 411.76074219 C-664.67663461 406.81122022 -667.58440406 401.9039689 -670.5 397 C-674.03421765 391.03405789 -677.55420709 385.06002049 -681.0546875 379.07421875 C-681.40674759 378.4723877 -681.75880768 377.87055664 -682.12153625 377.25048828 C-683.56546856 374.78200851 -685.00938411 372.31352096 -686.45162964 369.84405518 C-690.39179316 363.09905796 -694.36069873 356.37455589 -698.41796875 349.69921875 C-698.77018494 349.11841049 -699.12240112 348.53760223 -699.48529053 347.93919373 C-701.15880069 345.18039099 -702.83892269 342.42607886 -704.53076172 339.6784668 C-705.12002441 338.70949463 -705.70928711 337.74052246 -706.31640625 336.7421875 C-706.83662354 335.8951123 -707.35684082 335.04803711 -707.89282227 334.17529297 C-709 332 -709 332 -709 329 C-708.47905762 328.70456299 -707.95811523 328.40912598 -707.42138672 328.10473633 C-696.49124024 321.89924149 -685.60895563 315.62174235 -674.79833984 309.21020508 C-667.04749286 304.61392983 -659.27637632 300.05287355 -651.5 295.5 C-642.99012057 290.51663161 -634.48638004 285.5233281 -626 280.5 C-616.88724072 275.10590034 -607.7535281 269.74798484 -598.61572266 264.39648438 C-590.73428787 259.78036184 -582.86000241 255.15255748 -575 250.5 C-566.51361719 245.47667026 -558.00961761 240.48381859 -549.5 235.5 C-535.13628252 227.0866594 -520.79862716 218.63006752 -506.484375 210.1328125 C-493.75664461 202.57903044 -481.00524707 195.06844474 -468.21484375 187.62109375 C-461.3662173 183.63293779 -454.52523639 179.63178825 -447.6875 175.625 C-447.07747131 175.26753693 -446.46744263 174.91007385 -445.83892822 174.54177856 C-435.9287273 168.73273937 -426.04256385 162.8840636 -416.16479492 157.02001953 C-407.95938212 152.15210804 -399.73409091 147.3191496 -391.5 142.5 C-382.11024216 137.00383504 -372.73339625 131.4869698 -363.375 125.9375 C-361.71706421 124.95438843 -361.71706421 124.95438843 -360.02563477 123.95141602 C-354.42254365 120.6273819 -348.82180934 117.29941262 -343.22265625 113.96875 C-331.00863426 106.70901708 -318.7560728 99.5252944 -306.4375 92.44433594 C-296.72767494 86.85822622 -287.08278766 81.16617331 -277.44873047 75.45068359 C-273.80431978 73.29165186 -270.15250151 71.14530635 -266.5 69 C-261.14728701 65.85486001 -255.80020838 62.70037594 -250.45703125 59.5390625 C-240.81807746 53.83636257 -231.16404976 48.1600177 -221.5 42.5 C-212.59592814 37.28473497 -203.69665159 32.06166585 -194.8125 26.8125 C-193.95914063 26.30847656 -193.10578125 25.80445312 -192.2265625 25.28515625 C-191.01033203 24.56585938 -191.01033203 24.56585938 -189.76953125 23.83203125 C-188.98787598 23.37521973 -188.2062207 22.9184082 -187.40087891 22.44775391 C-185.69112068 21.41675266 -184.00809507 20.34085846 -182.34521484 19.23583984 C-181.03544678 18.3823999 -181.03544678 18.3823999 -179.69921875 17.51171875 C-178.52685669 16.72027466 -178.52685669 16.72027466 -177.33081055 15.9128418 C-175 15 -175 15 -172.55493164 15.64770508 C-169.81459414 17.09813312 -167.10368574 18.56822833 -164.421875 20.125 C-163.35227539 20.74391113 -162.28267578 21.36282227 -161.18066406 22.00048828 C-160.04854492 22.66032715 -158.91642578 23.32016602 -157.75 24 C-156.56751496 24.68626291 -155.38489669 25.3722963 -154.20214844 26.05810547 C-145.11210858 31.33354995 -136.04430323 36.64654824 -127 42 C-123.47940901 44.08374325 -119.95864044 46.16718532 -116.4375 48.25 C-115.51549805 48.79543457 -114.59349609 49.34086914 -113.64355469 49.90283203 C-106.7770298 53.96053904 -99.89238184 57.9863975 -93 62 C-84.53176022 66.9313288 -76.08389565 71.89541439 -67.65161133 76.88793945 C-58.59167962 82.2489175 -49.50877312 87.57042409 -40.42529297 92.89135742 C-39.20540105 93.6059526 -37.98551169 94.32055214 -36.765625 95.03515625 C-36.17600983 95.3805394 -35.58639465 95.72592255 -34.97891235 96.08177185 C-29.52280339 99.2784115 -24.07139983 102.48300951 -18.6237793 105.6940918 C-12.76001528 109.14831356 -6.87873339 112.57073885 -1 116 C-0.67 77.72 -0.34 39.44 0 0 Z " fill="#000000" transform="translate(774,100)"/>
<path d="M0 0 C1.13477783 0.64146973 1.13477783 0.64146973 2.29248047 1.29589844 C3.58025391 1.98039062 3.58025391 1.98039062 4.89404297 2.67871094 C6.39064453 3.54109375 6.39064453 3.54109375 7.91748047 4.42089844 C8.50392334 4.75871338 9.09036621 5.09652832 9.69458008 5.44458008 C17.28292181 9.83714 24.81196067 14.33181423 32.3503418 18.80932617 C40.91797149 23.8970008 49.50539893 28.94993837 58.10498047 33.98339844 C66.72075665 39.02642126 75.32793485 44.08326215 83.91748047 49.17089844 C90.5220641 53.08190902 97.14404183 56.9599138 103.79248047 60.79589844 C113.39102529 66.33433438 122.92939453 71.97243216 132.46337891 77.62109375 C136.27638285 79.87836049 140.09277242 82.12986233 143.90991211 84.38012695 C145.77032692 85.47904568 147.62893309 86.5810329 149.4855957 87.6862793 C153.62913446 90.15146075 157.77995572 92.58237928 162.00732422 94.90136719 C162.71638916 95.29936523 163.4254541 95.69736328 164.15600586 96.10742188 C165.45352634 96.83374357 166.76089377 97.54287359 168.0793457 98.23046875 C169.78466797 99.19824219 169.78466797 99.19824219 172.29248047 101.29589844 C172.67529297 104.54980469 172.67529297 104.54980469 172.29248047 107.29589844 C173.09685547 107.13927734 173.09685547 107.13927734 173.91748047 106.97949219 C182.62492167 106.07724088 188.81050089 110.46454416 195.90722656 114.83642578 C198.48306994 116.412515 201.08140036 117.94533199 203.68701172 119.47167969 C211.10220925 123.816723 218.49301291 128.20163723 225.84838867 132.6472168 C234.35844112 137.78954997 242.97406105 142.74435876 251.59155273 147.70410156 C263.50211145 154.56093745 275.35273193 161.50939057 287.11914062 168.6105957 C294.36146584 172.96530266 301.67871742 177.19300667 308.99389648 181.42382812 C309.98059326 181.99649414 310.96729004 182.56916016 311.98388672 183.15917969 C313.30175171 183.92161987 313.30175171 183.92161987 314.64624023 184.69946289 C315.51949951 185.22628662 316.39275879 185.75311035 317.29248047 186.29589844 C318.321832 186.82599416 319.35118354 187.35608987 320.41172755 187.9022491 C323.29248047 190.29589844 323.29248047 190.29589844 324.03767145 193.8319943 C324.06612312 195.28462722 324.06129721 196.73813268 324.03076744 198.19072342 C324.03769051 198.99562792 324.04461357 199.80053243 324.05174643 200.62982798 C324.0677109 203.3445536 324.04064942 206.05717154 324.01400757 208.77178955 C324.01662253 210.73040224 324.02187327 212.68901291 324.02954257 214.64761233 C324.04299947 220.04318797 324.01890375 225.43805302 323.9888742 230.83353806 C323.96302919 236.64674656 323.97172699 242.45991307 323.97628784 248.27316284 C323.97943813 258.3494343 323.96056962 268.42547315 323.92686081 278.5016861 C323.87815497 293.07026257 323.86245785 307.63873133 323.85493286 322.20737991 C323.84232605 345.842418 323.8018899 369.47733488 323.74511719 393.11230469 C323.69002248 416.07518875 323.64751501 439.03803966 323.62207031 462.00097656 C323.62088658 463.06246116 323.62088658 463.06246116 323.61967893 464.14538989 C323.6117679 471.25188273 323.604113 478.35837582 323.59664577 485.46486914 C323.58142796 499.94197427 323.56450045 514.41907723 323.54653931 528.8961792 C323.54571557 529.56183179 323.54489183 530.22748438 323.54404313 530.91330826 C323.48882708 575.37423302 323.3899144 619.83504496 323.29248047 664.29589844 C289.96248047 664.29589844 256.63248047 664.29589844 222.29248047 664.29589844 C222.29248047 540.54589844 222.29248047 416.79589844 222.29248047 289.29589844 C74.45248047 289.29589844 -73.38751953 289.29589844 -225.70751953 289.29589844 C-225.70751953 340.11589844 -225.70751953 390.93589844 -225.70751953 443.29589844 C-225.83754271 480.9701131 -225.97495143 518.64362069 -226.17108154 556.31744385 C-226.2404692 569.74955171 -226.30371948 583.1816906 -226.36815453 596.61382294 C-226.47652698 619.17454052 -226.59256062 641.73521122 -226.70751953 664.29589844 C-259.70751953 664.29589844 -292.70751953 664.29589844 -326.70751953 664.29589844 C-327.13806922 573.75104429 -327.13806922 573.75104429 -327.25798035 529.06555176 C-327.25977509 528.39844062 -327.26156983 527.73132948 -327.26341896 527.04400285 C-327.30232641 512.54601702 -327.33833882 498.04802534 -327.37136881 483.55002496 C-327.38758425 476.44024972 -327.40443944 469.33047606 -327.42163086 462.22070312 C-327.42333073 461.51319376 -327.42503059 460.8056844 -327.42678197 460.07673535 C-327.48218366 437.14257309 -327.57983306 414.20882711 -327.6993834 391.27491706 C-327.82201002 367.70807472 -327.90203071 344.14146276 -327.9284144 320.57430677 C-327.94550824 305.38633318 -328.00010281 290.19958112 -328.1104336 275.0119912 C-328.17904902 265.06100361 -328.19994447 255.11063551 -328.18303744 245.15942842 C-328.17469397 239.41396125 -328.1876527 233.67058469 -328.2571907 227.92548752 C-328.32038366 222.66628773 -328.32370954 217.41058653 -328.27920517 212.15122682 C-328.27370432 210.24793116 -328.29027157 208.34441868 -328.3310009 206.44155091 C-328.56543879 194.81345922 -328.56543879 194.81345922 -326.70751953 190.29589844 C-322.77221877 186.33086568 -318.86360828 184.46714494 -313.70751953 182.29589844 C-311.85855692 181.24079654 -310.0219055 180.16331548 -308.20751953 179.04980469 C-306.37503482 177.98454145 -304.54167108 176.92078918 -302.70751953 175.85839844 C-300.60969823 174.63863017 -298.5120497 173.41856474 -296.41455078 172.19824219 C-295.32352051 171.5638623 -294.23249023 170.92948242 -293.10839844 170.27587891 C-287.19777955 166.83473611 -281.29561211 163.37919863 -275.39501953 159.92089844 C-274.78625977 159.56416046 -274.1775 159.20742249 -273.55029297 158.83987427 C-263.6373921 153.02928619 -253.74889828 147.17845228 -243.86791992 141.3137207 C-232.07742985 134.32006006 -220.24850355 127.39254183 -208.41748047 120.46777344 C-202.09586067 116.76743553 -195.77674257 113.06282737 -189.45751953 109.35839844 C-188.84256622 108.99791412 -188.22761292 108.63742981 -187.59402466 108.26602173 C-175.44544709 101.14433057 -163.30178941 94.01470881 -151.18164062 86.84472656 C-137.9746754 79.03275574 -124.73864967 71.27086006 -111.49804688 63.51611328 C-105.15036333 59.79831032 -98.80389043 56.07844153 -92.45751953 52.35839844 C-91.53826187 51.81957535 -91.53826187 51.81957535 -90.60043335 51.26986694 C-80.96394989 45.62122572 -71.3326245 39.96390464 -61.70751953 34.29589844 C-59.12437543 32.77474341 -56.5410256 31.25393863 -53.95751953 29.73339844 C-53.28914063 29.33983154 -52.62076172 28.94626465 -51.93212891 28.54077148 C-47.79904077 26.10880194 -43.66209239 23.68353992 -39.52178955 21.26387024 C-36.97209059 19.77369893 -34.42300985 18.28247138 -31.87390137 16.79129028 C-30.61974313 16.05806028 -29.36527907 15.32535308 -28.11047363 14.5932312 C-26.90717271 13.89113004 -25.70430819 13.18828035 -24.50189209 12.48466492 C-23.32228303 11.79475168 -22.14150588 11.10683153 -20.95953369 10.42097473 C-17.95073601 8.66353933 -15.00223144 6.85106067 -12.10009766 4.921875 C-11.51677673 4.54076569 -10.93345581 4.15965637 -10.3324585 3.76699829 C-8.72533262 2.71052743 -7.13148054 1.63394346 -5.53857422 0.55615234 C-2.70751953 -0.70410156 -2.70751953 -0.70410156 0 0 Z " fill="#FEFEFE" transform="translate(601.70751953125,260.7041015625)"/>
<path d="M0 0 C0.66 0.33 1.32 0.66 2 1 C0.02 2.65 -1.96 4.3 -4 6 C-3.34 6.66 -2.68 7.32 -2 8 C-6.455 8.495 -6.455 8.495 -11 9 C-9.73948004 5.21844011 -8.43553394 4.74381633 -5.0625 2.75 C-4.16660156 2.20859375 -3.27070312 1.6671875 -2.34765625 1.109375 C-1.57292969 0.74328125 -0.79820312 0.3771875 0 0 Z " fill="#121212" transform="translate(580,126)"/>
<path d="M0 0 C2 1 2 1 3 3 C1.35 4.32 -0.3 5.64 -2 7 C-4.475 6.01 -4.475 6.01 -7 5 C-2.25 1.125 -2.25 1.125 0 0 Z " fill="#ECECEC" transform="translate(482,329)"/>
<path d="M0 0 C3.45925163 1.2491742 6.14693203 2.67527795 9 5 C8.21625 5.144375 7.4325 5.28875 6.625 5.4375 C4.03578982 5.87798925 4.03578982 5.87798925 2 7 C0.5393715 4.35261084 0 3.10551666 0 0 Z " fill="#111111" transform="translate(635,136)"/>
<path d="M0 0 C0.66 0 1.32 0 2 0 C2.33 1.65 2.66 3.3 3 5 C0.69 6.32 -1.62 7.64 -4 9 C-2.80100302 5.9168649 -1.52299523 2.93720508 0 0 Z " fill="#EAEAEA" transform="translate(1116,462)"/>
<path d="M0 0 C-0.125 1.8125 -0.125 1.8125 -1 4 C-3.9375 5.8125 -3.9375 5.8125 -7 7 C-7.66 6.67 -8.32 6.34 -9 6 C-9 5.34 -9 4.68 -9 4 C-2.25 0 -2.25 0 0 0 Z " fill="#ECECEC" transform="translate(324,423)"/>
<path d="M0 0 C0.66 0.33 1.32 0.66 2 1 C0.1875 3.5 0.1875 3.5 -2 6 C-2.99 6 -3.98 6 -5 6 C-5.66 5.34 -6.32 4.68 -7 4 C-1.7265625 0.77734375 -1.7265625 0.77734375 0 0 Z " fill="#E7E7E7" transform="translate(293,440)"/>
<path d="M0 0 C3.78903708 0.25260247 5.54186593 2.27849443 8 5 C7.67 5.66 7.34 6.32 7 7 C4.03 5.35 1.06 3.7 -2 2 C-1.34 1.34 -0.68 0.68 0 0 Z " fill="#E3E3E3" transform="translate(674,156)"/>
<path d="M0 0 C1.32 0.33 2.64 0.66 4 1 C3.01 2.98 2.02 4.96 1 7 C-0.5 5.625 -0.5 5.625 -2 4 C-2 3.34 -2 2.68 -2 2 C-1.34 2 -0.68 2 0 2 C0 1.34 0 0.68 0 0 Z " fill="#101010" transform="translate(121,520)"/>
<path d="M0 0 C1.125 1.75 1.125 1.75 2 4 C1.125 6.25 1.125 6.25 0 8 C-1.32 7.67 -2.64 7.34 -4 7 C-2.68 4.69 -1.36 2.38 0 0 Z " fill="#E7E7E7" transform="translate(1099,491)"/>
<path d="M0 0 C0.33 0.66 0.66 1.32 1 2 C1.66 2 2.32 2 3 2 C2.67 2.99 2.34 3.98 2 5 C-0.9375 4.625 -0.9375 4.625 -4 4 C-4.33 3.34 -4.66 2.68 -5 2 C-2 0 -2 0 0 0 Z " fill="#0F0F0F" transform="translate(492,179)"/>
<path d="M0 0 C3.125 0.375 3.125 0.375 6 1 C5.67 1.99 5.34 2.98 5 4 C4.01 4.33 3.02 4.66 2 5 C-0.1875 3.5625 -0.1875 3.5625 -2 2 C-1.34 1.34 -0.68 0.68 0 0 Z " fill="#121212" transform="translate(900,433)"/>
<path d="M0 0 C1 2 1 2 0.25 4.5625 C-1 7 -1 7 -4 8 C-4.25 5.6875 -4.25 5.6875 -4 3 C-2 1.1875 -2 1.1875 0 0 Z " fill="#EDEDED" transform="translate(279,448)"/>
<path d="M0 0 C0.66 0.33 1.32 0.66 2 1 C1.34 2.65 0.68 4.3 0 6 C-0.66 6 -1.32 6 -2 6 C-2 5.34 -2 4.68 -2 4 C-2.99 3.67 -3.98 3.34 -5 3 C-2.625 1.4375 -2.625 1.4375 0 0 Z " fill="#1C1C1C" transform="translate(293,295)"/>
<path d="M0 0 C2.475 0.99 2.475 0.99 5 2 C4.01 2.99 3.02 3.98 2 5 C1.01 4.67 0.02 4.34 -1 4 C-0.67 2.68 -0.34 1.36 0 0 Z " fill="#EEEEEE" transform="translate(825,393)"/>
<path d="M0 0 C1.32 0.66 2.64 1.32 4 2 C3.67 3.32 3.34 4.64 3 6 C2.67 5.34 2.34 4.68 2 4 C1.01 3.67 0.02 3.34 -1 3 C-0.67 2.01 -0.34 1.02 0 0 Z " fill="#F1F1F1" transform="translate(469,185)"/>
<path d="M0 0 C2.31 0 4.62 0 7 0 C6.34 1.32 5.68 2.64 5 4 C2.525 3.01 2.525 3.01 0 2 C0 1.34 0 0.68 0 0 Z " fill="#0D0D0D" transform="translate(885,426)"/>
<path d="M0 0 C0.99 0.33 1.98 0.66 3 1 C2.67 1.99 2.34 2.98 2 4 C1.01 4.33 0.02 4.66 -1 5 C-1.66 4.34 -2.32 3.68 -3 3 C-2.01 2.01 -1.02 1.02 0 0 Z " fill="#EAEAEA" transform="translate(516,160)"/>
</svg>
