<?xml version="1.0" encoding="UTF-8"?>
<svg version="1.1" xmlns="http://www.w3.org/2000/svg" width="512" height="512">
<path d="M0 0 C168.96 0 337.92 0 512 0 C512 168.96 512 337.92 512 512 C343.04 512 174.08 512 0 512 C0 343.04 0 174.08 0 0 Z " fill="#FEFEFE" transform="translate(0,0)"/>
<path d="M0 0 C2.1953125 1.90625 2.1953125 1.90625 4.125 4.5 C5.26001953 5.98886719 5.26001953 5.98886719 6.41796875 7.5078125 C7.03164307 8.33974121 7.03164307 8.33974121 7.65771484 9.18847656 C9.12010859 11.16209635 10.61342485 13.10939705 12.11328125 15.0546875 C14.35060353 17.9590602 16.57854495 20.87015603 18.796875 23.7890625 C21.58123337 27.45243056 24.37941031 31.10480281 27.1875 34.75 C27.98542969 35.78640625 28.78335938 36.8228125 29.60546875 37.890625 C30.39566406 38.91671875 31.18585938 39.9428125 32 41 C33.66695292 43.16644651 35.33347413 45.33322497 37 47.5 C37.83332547 48.58333938 38.6666588 49.66667272 39.5 50.75 C67.83333333 87.58333333 96.16666667 124.41666667 124.5 161.25 C124.91282227 161.78657227 125.32564453 162.32314453 125.75097656 162.87597656 C126.58143257 163.95576416 127.41151283 165.03584086 128.24121094 166.11621094 C130.36552627 168.88132524 132.49680406 171.64059844 134.640625 174.390625 C137.11982355 177.5744185 139.5641831 180.78288334 142 184 C142.65871094 184.84820312 143.31742187 185.69640625 143.99609375 186.5703125 C146.69066046 190.24189301 147.95955628 192.17764444 148.1875 196.8125 C146.74137878 200.69419379 145.67665418 202.08174564 142 204 C135.73655593 203.66513479 130.34316523 201.4038086 124.56640625 199.08984375 C123.55146088 198.6902243 122.5365155 198.29060486 121.49081421 197.87887573 C118.17841298 196.57244339 114.87044458 195.25517129 111.5625 193.9375 C109.27765394 193.03351976 106.992577 192.13012287 104.70727539 191.22729492 C97.80056422 188.49559795 90.89997398 185.74865959 84 183 C81.90727057 182.1675326 79.81449866 181.33517196 77.72167969 180.50292969 C68.86076325 176.9779937 60.0029289 173.44533624 51.15234375 169.89453125 C50.4495932 169.61318329 49.74684265 169.33183533 49.02279663 169.04196167 C44.23455041 167.1172752 44.23455041 167.1172752 42 166 C42.00184359 167.13436587 42.00368717 168.26873175 42.00558662 169.43747234 C42.04995636 197.02010865 42.08283757 224.60274034 42.10362434 252.18540478 C42.11394347 265.52408911 42.12801596 278.86274706 42.15087891 292.20141602 C42.1707933 303.82536898 42.18371181 315.44930489 42.18817699 327.07327443 C42.19078767 333.22988802 42.19693715 339.3864528 42.21146011 345.54305077 C42.22501318 351.33529959 42.22922724 357.12747941 42.22621536 362.91974258 C42.22676654 365.04783439 42.23075749 367.17592846 42.23841095 369.30400658 C42.2483365 372.20566062 42.24597754 375.10705288 42.24050903 378.00871277 C42.24633472 378.85404813 42.2521604 379.6993835 42.25816262 380.57033509 C42.23204657 385.68445393 41.97455395 389.83644508 38.36888123 393.7872467 C34.99729889 395.51333476 31.79955991 395.42643423 28.09790039 395.40405273 C26.90938225 395.41434761 26.90938225 395.41434761 25.69685364 395.42485046 C23.0802717 395.44313674 20.46428832 395.43927839 17.84765625 395.43359375 C16.02688909 395.43815478 14.20612365 395.44346012 12.38536072 395.44947815 C8.56974289 395.45841291 4.75433433 395.45598211 0.9387207 395.44604492 C-3.94851695 395.43455654 -8.83503194 395.45476269 -13.72217464 395.48396206 C-17.4823108 395.50231779 -21.2422736 395.50203283 -25.00244331 395.49632454 C-26.80415422 395.49617124 -28.6058768 395.50222289 -30.40754509 395.51461601 C-32.92832495 395.52951211 -35.44776754 395.51885991 -37.96850586 395.50170898 C-38.71100586 395.51137695 -39.45350586 395.52104492 -40.21850586 395.53100586 C-43.77582902 395.48038284 -45.87346564 395.0766815 -48.93946838 393.21864319 C-52.92744837 388.92465198 -52.13943994 383.71595182 -52.12025452 378.12896729 C-52.12110894 377.22308451 -52.12196337 376.31720174 -52.12284368 375.38386798 C-52.12449351 372.34215502 -52.1189852 369.30049696 -52.11352539 366.25878906 C-52.11324339 364.08088685 -52.11340151 361.90298455 -52.1139679 359.7250824 C-52.11425535 353.80607825 -52.10836695 347.88709428 -52.10139394 341.96809483 C-52.09515181 335.78478154 -52.09455592 329.60146781 -52.09336853 323.41815186 C-52.09025776 311.70622021 -52.08204777 299.99429787 -52.07201904 288.28237033 C-52.06076993 274.95000518 -52.05534546 261.61764 -52.05032361 248.28527117 C-52.03986497 220.85684228 -52.02227041 193.42842166 -52 166 C-53.13944518 166.46494574 -53.13944518 166.46494574 -54.30190945 166.93928432 C-57.17590788 168.11176995 -60.05006215 169.2838726 -62.92431545 170.4557333 C-64.75773282 171.20336448 -66.5909773 171.9514196 -68.42421722 172.69948578 C-83.6919309 178.92351876 -99.0293919 184.96840989 -114.37568665 190.9954834 C-119.05677196 192.83530148 -123.73146639 194.68935904 -128.39625549 196.57011414 C-131.3644764 197.76476872 -134.33915179 198.94317608 -137.3125 200.125 C-138.84789429 200.75450562 -138.84789429 200.75450562 -140.41430664 201.39672852 C-148.98157784 204.7674946 -148.98157784 204.7674946 -154 203 C-156.4375 200.875 -156.4375 200.875 -158 198 C-157.93449471 191.35121339 -155.08014817 187.79650602 -151.0625 182.875 C-150.17788086 181.75641602 -150.17788086 181.75641602 -149.27539062 180.61523438 C-148.08086861 179.10493406 -146.88121084 177.59868046 -145.67626953 176.09667969 C-143.40960066 173.26152789 -141.20456756 170.38373418 -139 167.5 C-138.2059375 166.46875 -137.411875 165.4375 -136.59375 164.375 C-133.55392367 160.42322578 -130.52726485 156.46139982 -127.5 152.5 C-122.01440437 145.3221672 -116.51203238 138.15754939 -111 131 C-109.33304708 128.83355349 -107.66652587 126.66677503 -106 124.5 C-105.16667453 123.41666062 -104.3333412 122.33332728 -103.5 121.25 C-103.0875 120.71375 -102.675 120.1775 -102.25 119.625 C-65.375 71.6875 -65.375 71.6875 -28.5 23.75 C-28.0870166 23.21286377 -27.6740332 22.67572754 -27.24853516 22.12231445 C-26.42109239 21.04715662 -25.59265317 19.97276487 -24.76318359 18.89916992 C-22.58062155 16.07146696 -20.42069807 13.22962156 -18.2890625 10.36328125 C-17.62003906 9.47189453 -17.62003906 9.47189453 -16.9375 8.5625 C-16.08467374 7.42539833 -15.23794475 6.28368885 -14.3984375 5.13671875 C-10.02798429 -0.66141584 -7.18399076 -1.85599761 0 0 Z " fill="#000000" transform="translate(261,59)"/>
</svg>
