<?xml version="1.0" encoding="UTF-8"?>
<svg version="1.1" xmlns="http://www.w3.org/2000/svg" width="320" height="320">
<path d="M0 0 C105.6 0 211.2 0 320 0 C320 105.6 320 211.2 320 320 C214.4 320 108.8 320 0 320 C0 214.4 0 108.8 0 0 Z " fill="#FCFCFC" transform="translate(0,0)"/>
<path d="M0 0 C29.37 0 58.74 0 89 0 C89.33 14.52 89.66 29.04 90 44 C93.33333333 49.83333333 93.33333333 49.83333333 97 52 C112.18 52.33 127.36 52.66 143 53 C143 98.21 143 143.42 143 190 C95.81 190 48.62 190 0 190 C0 127.3 0 64.6 0 0 Z " fill="#FBFBFB" transform="translate(36,109)"/>
<path d="M0 0 C0.85481461 -0.00997513 1.70962921 -0.01995026 2.59034729 -0.03022766 C3.52023972 -0.03089233 4.45013214 -0.03155701 5.40820312 -0.03224182 C6.88709267 -0.0447271 6.88709267 -0.0447271 8.39585876 -0.0574646 C11.66043031 -0.08158709 14.92480184 -0.09034198 18.18945312 -0.09693909 C20.46427469 -0.10590766 22.73909565 -0.11502954 25.01391602 -0.1242981 C29.78875155 -0.14079953 34.5635169 -0.14848963 39.33837891 -0.15138245 C45.43338055 -0.15675017 51.52771437 -0.19435926 57.62252808 -0.24012661 C62.32568717 -0.26999755 67.02868792 -0.27710828 71.73193359 -0.2781086 C73.97724447 -0.28229529 76.22255649 -0.29466671 78.46777344 -0.31562614 C94.60881768 -0.45423816 106.17434022 0.17196876 118.31942749 11.89399719 C119.49259018 13.07217514 119.49259018 13.07217514 120.68945312 14.27415466 C121.44441071 15.00184052 122.19936829 15.72952637 122.97720337 16.47926331 C125.27251782 18.69473425 127.54071668 20.93487763 129.80273438 23.18431091 C130.62017624 23.9960527 131.4376181 24.80779449 132.27983093 25.64413452 C133.98943965 27.34438061 135.69766443 29.04601932 137.40454102 30.74900818 C140.00610914 33.34079505 142.61816348 35.9217117 145.23046875 38.50267029 C146.90104778 40.16672436 148.57099195 41.83141607 150.24023438 43.49681091 C151.01426102 44.25849075 151.78828766 45.02017059 152.58576965 45.80493164 C160.05597945 53.30593088 165.92462283 60.80562142 165.95687866 71.75741577 C165.96967361 73.72363136 165.96967361 73.72363136 165.98272705 75.72956848 C165.98202808 77.17533887 165.98110505 78.62110916 165.97998047 80.06687927 C165.9859671 81.59481128 165.99277296 83.12274026 166.00033569 84.65066528 C166.01798722 88.7952842 166.02269066 92.9398205 166.02396727 97.08447337 C166.02538967 99.67475857 166.02966091 102.26502282 166.0349617 104.85530281 C166.05345772 113.89426633 166.06163267 122.93317089 166.06005859 131.97215271 C166.05885664 140.39453264 166.07997052 148.81665653 166.11154592 157.23897165 C166.13770232 164.47393814 166.14842619 171.70882095 166.14714777 178.94383436 C166.14663804 183.26332674 166.1523277 187.58259144 166.17350388 191.90203667 C166.19287617 195.96428435 166.19301791 200.02608686 166.17847061 204.0883503 C166.17638028 205.57745642 166.18109685 207.06659033 166.19319153 208.5556488 C166.20865538 210.59167946 166.19693185 212.62786205 166.18392944 214.66390991 C166.18501898 215.80228271 166.18610851 216.9406555 166.18723106 218.11352444 C165.40136438 223.10336789 162.88079127 226.20195033 159.18945312 229.52415466 C154.68056352 232.68037739 151.86306268 233.52486768 146.28848267 233.53485107 C144.97063278 233.54193588 143.6527829 233.54902069 142.29499817 233.55632019 C140.83615078 233.5540264 139.37730372 233.5515167 137.91845703 233.54881287 C136.38082125 233.55316048 134.84318764 233.5583438 133.30555725 233.56430054 C129.1298802 233.57769744 124.95429362 233.57826837 120.77859926 233.57573724 C117.29204116 233.57466785 113.80550138 233.57955014 110.3189472 233.58434266 C102.09250035 233.59544055 93.86609915 233.59587387 85.63964844 233.58982849 C77.15541554 233.58378947 68.67134852 233.59609721 60.18714392 233.61739856 C52.9012441 233.63501814 45.61539706 233.6410153 38.32947671 233.63776082 C33.97871605 233.63594816 29.62807367 233.63858229 25.27733231 233.65247536 C21.18478488 233.66505466 17.09249579 233.66310871 12.99995232 233.65006447 C11.49956487 233.64769923 9.99915924 233.6504315 8.49879265 233.65868759 C6.44702657 233.66916198 4.39612621 233.66105 2.34439087 233.64837646 C0.62382194 233.64862808 0.62382194 233.64862808 -1.13150597 233.64888477 C-6.10360904 233.06279709 -10.06281042 230.95454612 -13.56054688 227.39915466 C-14.04007813 226.92735779 -14.51960938 226.45556091 -15.01367188 225.96946716 C-18.54231003 221.35672933 -18.60209468 216.54447141 -18.58470154 210.94412231 C-18.58993822 210.10836648 -18.5951749 209.27261065 -18.60057026 208.41152889 C-18.615565 205.61267791 -18.6162753 202.81400984 -18.61694336 200.01512146 C-18.62456518 198.00768221 -18.63299272 196.00024587 -18.64216614 193.99281311 C-18.66411545 188.54026096 -18.67291061 183.0877649 -18.67799258 177.63517356 C-18.68163557 174.22809735 -18.68787534 170.82103584 -18.69499397 167.41396523 C-18.71948977 155.52629068 -18.7325407 143.63865979 -18.73608398 131.7509613 C-18.73971956 120.67246547 -18.76961633 109.59424663 -18.81148857 98.51583546 C-18.84618478 89.0023029 -18.86163231 79.48886216 -18.86233002 69.97526675 C-18.86312304 64.29417298 -18.8718737 58.61336136 -18.90032768 52.93233299 C-18.92649667 47.58800986 -18.9287198 42.24420306 -18.91267204 36.89984512 C-18.91085665 34.94070752 -18.91755636 32.9815403 -18.93349075 31.02246666 C-18.95395419 28.34274766 -18.94339855 25.66483481 -18.92527771 22.98513794 C-18.93847768 22.21420687 -18.95167765 21.4432758 -18.96527761 20.64898318 C-18.87488467 14.77603186 -16.93227363 10.86351088 -13.31054688 6.27415466 C-9.25031509 2.51101301 -5.61154202 0.03525201 0 0 Z M2.68945312 22.27415466 C2.68945312 84.97415466 2.68945312 147.67415466 2.68945312 212.27415466 C49.87945312 212.27415466 97.06945312 212.27415466 145.68945312 212.27415466 C145.68945312 167.06415466 145.68945312 121.85415466 145.68945312 75.27415466 C130.50945312 74.94415466 115.32945312 74.61415466 99.68945312 74.27415466 C94.68945312 70.27415466 94.68945312 70.27415466 92.68945312 66.27415466 C92.35945313 51.75415466 92.02945313 37.23415466 91.68945312 22.27415466 C62.31945312 22.27415466 32.94945312 22.27415466 2.68945312 22.27415466 Z " fill="#020202" transform="translate(33.310546875,86.72584533691406)"/>
<path d="M0 0 C1.30661591 -0.00571014 2.61323181 -0.01142029 3.95944214 -0.01730347 C5.41088858 -0.01854883 6.86233512 -0.01967392 8.31378174 -0.02069092 C9.83979411 -0.02531942 11.36580532 -0.03034412 12.89181519 -0.03573608 C17.04073512 -0.04886022 21.18963887 -0.05530523 25.33857632 -0.05974674 C27.93119716 -0.06267784 30.52381358 -0.06678275 33.11643219 -0.07125092 C41.22959331 -0.08492676 49.34274432 -0.09459262 57.45591617 -0.09845281 C66.8184236 -0.10293195 76.18078493 -0.12047276 85.54324794 -0.1494534 C92.78157752 -0.17108034 100.01986604 -0.18115765 107.25822759 -0.18249393 C111.58054167 -0.18354136 115.90271843 -0.18943584 120.22499847 -0.20731354 C124.29289797 -0.22381144 128.36055717 -0.22594144 132.42847824 -0.21717453 C133.91877512 -0.21640503 135.409085 -0.22073535 136.89934921 -0.23063278 C152.63815243 -0.32900154 152.63815243 -0.32900154 159.51397705 5.45294189 C164.05974534 10.88260958 165.20596511 15.51791976 165.14492798 22.48356628 C165.14960795 23.30863145 165.15428792 24.13369661 165.15910971 24.98376375 C165.17104827 27.74050041 165.16160693 30.49673891 165.15216064 33.253479 C165.15622688 35.23313181 165.16156905 37.21278235 165.16809082 39.19242859 C165.18176487 44.56432943 165.17646511 49.93605737 165.16695356 55.30796123 C165.15935641 60.93145255 165.16640284 66.55492911 165.17111206 72.17842102 C165.17656989 81.62306372 165.16937772 91.06763605 165.15509033 100.51226807 C165.13876853 111.42771484 165.14404886 122.34299346 165.16056955 133.25843614 C165.17418924 142.63270122 165.17610155 152.00691572 165.16825354 161.3811875 C165.1635791 166.97886858 165.16294586 172.57647066 165.17286301 178.17414665 C165.1815372 183.43796332 165.17550231 188.70156351 165.15818024 193.96535683 C165.15421764 195.89587418 165.15534555 197.8264098 165.16196823 199.75691986 C165.17018285 202.39496943 165.15986316 205.03232814 165.14492798 207.67033386 C165.15162014 208.43182281 165.15831231 209.19331176 165.16520727 209.97787613 C165.08660123 217.15079949 162.85845571 222.9004067 157.76397705 228.14044189 C153.14912686 230.95792016 149.31235087 231.5628325 144.01446533 231.48101807 C142.88661369 231.48167519 142.88661369 231.48167519 141.73597717 231.48234558 C139.26847716 231.48026754 136.8016698 231.45698392 134.33428955 231.43341064 C132.61650972 231.42781117 130.89872507 231.42354273 129.18093872 231.42054749 C124.67306145 231.40912637 120.16547693 231.3796829 115.65771484 231.34643555 C111.05255086 231.31567557 106.44733929 231.30202951 101.84210205 231.28692627 C92.81591146 231.25481035 83.79001447 231.20206494 74.76397705 231.14044189 C74.76397705 224.54044189 74.76397705 217.94044189 74.76397705 211.14044189 C97.53397705 211.14044189 120.30397705 211.14044189 143.76397705 211.14044189 C143.76397705 148.44044189 143.76397705 85.74044189 143.76397705 21.14044189 C96.90397705 21.14044189 50.04397705 21.14044189 1.76397705 21.14044189 C1.76397705 37.64044189 1.76397705 54.14044189 1.76397705 71.14044189 C-5.49602295 71.14044189 -12.75602295 71.14044189 -20.23602295 71.14044189 C-20.31036998 63.45410256 -20.36471918 55.76797418 -20.40081787 48.08135986 C-20.41587228 45.46836702 -20.43632025 42.85539932 -20.46234131 40.24249268 C-20.49887073 36.47924584 -20.51578335 32.71633414 -20.5289917 28.95294189 C-20.54447556 27.79117432 -20.55995941 26.62940674 -20.57591248 25.43243408 C-20.57742671 18.07796823 -20.26747105 11.70361577 -15.29852295 5.86309814 C-14.27758545 5.0413208 -14.27758545 5.0413208 -13.23602295 4.20294189 C-12.55539795 3.63704346 -11.87477295 3.07114502 -11.17352295 2.48809814 C-7.5150651 -0.05659532 -4.32762504 0.01130678 0 0 Z " fill="#040404" transform="translate(140.23602294921875,-0.14044189453125)"/>
<path d="M0 0 C0.95625778 -0.00817749 1.91251556 -0.01635498 2.89775085 -0.02478027 C6.07212696 -0.04965541 9.24645827 -0.06615611 12.42089844 -0.08056641 C14.04524937 -0.08855192 14.04524937 -0.08855192 15.70241547 -0.09669876 C21.43457838 -0.12344008 27.16671944 -0.1428115 32.89892578 -0.15722656 C38.82191221 -0.173873 44.74434207 -0.21864844 50.66711807 -0.26959801 C55.21904138 -0.3032443 59.77083221 -0.3148012 64.32286835 -0.32045364 C66.50616456 -0.32717376 68.68945183 -0.34241545 70.87262726 -0.36634445 C73.92986967 -0.39794059 76.98560612 -0.3980407 80.04296875 -0.390625 C81.3944828 -0.415233 81.3944828 -0.415233 82.77330017 -0.44033813 C87.08318812 -0.39757397 89.90498191 -0.15708778 93.32635498 2.6043396 C96.22628294 5.66334705 96.71491834 6.32691601 97.03027344 10.50537109 C96.76146228 14.47033562 96.24825168 16.12917396 93.78027344 19.19287109 C89.19691983 22.85316058 84.91625112 22.63126887 79.31176758 22.61279297 C78.36482529 22.62126251 77.417883 22.62973206 76.44224548 22.63845825 C73.31650306 22.66182977 70.19125282 22.66285039 67.06542969 22.66162109 C64.88976342 22.66872234 62.71409903 22.67642128 60.53843689 22.68469238 C55.97975457 22.6981374 51.42124543 22.69970571 46.86254883 22.69384766 C41.02364887 22.68795029 35.18558004 22.71854523 29.34684086 22.75896454 C24.85407542 22.78482577 20.36151056 22.78772038 15.86868095 22.78407288 C13.71610868 22.78576545 11.56352728 22.79542115 9.41102791 22.81321716 C6.39951203 22.83537616 3.3896844 22.8257201 0.37817383 22.80810547 C-0.50877167 22.82136871 -1.39571716 22.83463196 -2.30953979 22.84829712 C-6.54574063 22.79078477 -9.37014667 22.51968333 -12.75709534 19.84191895 C-15.65148487 16.72842948 -16.12134177 15.06193672 -16.59472656 10.88037109 C-16.09738585 5.98985408 -14.64888164 4.62202617 -11.21972656 1.19287109 C-7.77221308 -0.53088565 -3.79573799 0.01778631 0 0 Z " fill="#010101" transform="translate(67.2197265625,211.80712890625)"/>
<path d="M0 0 C1.32 0.66 2.64 1.32 4 2 C4.92560206 15.71947948 2.20758734 26.36244591 -6.91796875 36.859375 C-16.88261304 47.10445018 -30.43283221 52.3715714 -44 56 C-44.33 59.63 -44.66 63.26 -45 67 C-46.98 67.495 -46.98 67.495 -49 68 C-51.4453125 66.4453125 -51.4453125 66.4453125 -54.125 64.125 C-55.09179688 63.29613281 -56.05859375 62.46726562 -57.0546875 61.61328125 C-64.3984106 55.09743144 -64.3984106 55.09743144 -67.6953125 52.05859375 C-69.76950503 50.20588279 -71.90986031 48.55192302 -74.125 46.875 C-76.75997696 44.61466431 -76.97166428 44.13223334 -77.75 40.5 C-76.3407597 33.92354526 -71.45230212 30.36956629 -66.515625 26.21484375 C-64.45692292 24.40229083 -62.50046555 22.55127745 -60.546875 20.62890625 C-59.62539673 19.73473999 -59.62539673 19.73473999 -58.68530273 18.82250977 C-57.4494096 17.61980578 -56.22461422 16.40557772 -55.01196289 15.17944336 C-54.43696045 14.62522705 -53.86195801 14.07101074 -53.26953125 13.5 C-52.76010986 12.9946875 -52.25068848 12.489375 -51.72583008 11.96875 C-50 11 -50 11 -45 12 C-45 16.62 -45 21.24 -45 26 C-30.84579336 25.47087078 -17.60393663 24.16462814 -7.375 13.3125 C-3.92688917 9.25275089 -1.8506662 4.96576272 0 0 Z " fill="#040404" transform="translate(294,248)"/>
<path d="M0 0 C4.05938794 0.21042184 6.24153428 2.80782653 9.0625 5.5 C12.89355302 9.09000952 16.76265754 12.4779332 20.875 15.75 C30.76192205 23.80968288 30.76192205 23.80968288 31.3125 28.875 C28.45072332 35.688754 21.74386766 40.35279033 16.2109375 45.0546875 C14.50663783 46.55423032 12.85451707 48.1132158 11.2265625 49.6953125 C10.74421143 50.1588916 10.26186035 50.6224707 9.76489258 51.10009766 C8.37189929 52.44274743 6.99226635 53.79921691 5.61328125 55.15625 C4.31970703 56.06890625 4.31970703 56.06890625 3 57 C1.35 56.67 -0.3 56.34 -2 56 C-2 51.38 -2 46.76 -2 42 C-21.53404251 42.3412244 -21.53404251 42.3412244 -38 52 C-41.63648526 56.6423216 -44.53303708 61.65491366 -47 67 C-48.32 66.34 -49.64 65.68 -51 65 C-51.72655384 50.99365645 -49.22477658 42.52570662 -40 32 C-39.49984375 31.39414062 -38.9996875 30.78828125 -38.484375 30.1640625 C-29.26387884 19.8724986 -15.93272094 15.49351423 -3 12 C-2.95101562 11.30132812 -2.90203125 10.60265625 -2.8515625 9.8828125 C-2.77679688 8.97273437 -2.70203125 8.06265625 -2.625 7.125 C-2.55539063 6.22007813 -2.48578125 5.31515625 -2.4140625 4.3828125 C-2 2 -2 2 0 0 Z " fill="#040404" transform="translate(77,6)"/>
<path d="M0 0 C0.95625778 -0.00817749 1.91251556 -0.01635498 2.89775085 -0.02478027 C6.07212696 -0.04965541 9.24645827 -0.06615611 12.42089844 -0.08056641 C14.04524937 -0.08855192 14.04524937 -0.08855192 15.70241547 -0.09669876 C21.43457838 -0.12344008 27.16671944 -0.1428115 32.89892578 -0.15722656 C38.82191221 -0.173873 44.74434207 -0.21864844 50.66711807 -0.26959801 C55.21904138 -0.3032443 59.77083221 -0.3148012 64.32286835 -0.32045364 C66.50616456 -0.32717376 68.68945183 -0.34241545 70.87262726 -0.36634445 C73.92986967 -0.39794059 76.98560612 -0.3980407 80.04296875 -0.390625 C81.3944828 -0.415233 81.3944828 -0.415233 82.77330017 -0.44033813 C87.08318812 -0.39757397 89.90498191 -0.15708778 93.32635498 2.6043396 C96.17411173 5.60831392 96.68471689 6.36471434 97.15527344 10.44287109 C96.65883105 15.40729496 95.30519931 16.74992024 91.78027344 20.19287109 C89.08522222 21.0912215 87.50684173 21.32511659 84.73942566 21.34677124 C83.91938553 21.3553717 83.0993454 21.36397217 82.25445557 21.37283325 C80.91021515 21.37922318 80.91021515 21.37922318 79.53881836 21.38574219 C78.59216812 21.39391968 77.64551788 21.40209717 76.67018127 21.41052246 C73.53370801 21.43535947 70.39727993 21.45188722 67.26074219 21.46630859 C66.1897912 21.47163227 65.11884022 21.47695595 64.01543617 21.48244095 C58.34810731 21.50916376 52.68080042 21.52854242 47.01342773 21.54296875 C41.15884866 21.55962445 35.30483163 21.60441288 29.4504652 21.65534019 C24.94915617 21.6889849 20.44798111 21.70054309 15.946558 21.70619583 C13.78838106 21.71291474 11.63021312 21.72815329 9.47215843 21.75208664 C6.45094228 21.78368391 3.43124992 21.78378296 0.40991211 21.77636719 C-0.48017548 21.79277252 -1.37026306 21.80917786 -2.287323 21.82608032 C-6.5731269 21.78304906 -9.35830399 21.52645613 -12.75907898 18.78140259 C-15.61440355 15.77768209 -16.12368635 15.02521961 -16.59472656 10.94287109 C-16.1004536 6.00014151 -14.68144356 4.65458809 -11.21972656 1.19287109 C-7.77221308 -0.53088565 -3.79573799 0.01778631 0 0 Z " fill="#040404" transform="translate(67.2197265625,251.80712890625)"/>
<path d="M0 0 C0.9481105 -0.0049649 1.89622101 -0.00992981 2.87306213 -0.01504517 C6.01979286 -0.02968895 9.16647317 -0.03647271 12.31323242 -0.04199219 C14.49558006 -0.0477421 16.67792767 -0.05349985 18.86027527 -0.05926514 C23.44103227 -0.06978163 28.02177168 -0.07561996 32.60253906 -0.07910156 C38.47390383 -0.08458569 44.34503661 -0.10860938 50.21632862 -0.13707352 C54.72617777 -0.15569273 59.23597099 -0.16090513 63.74585533 -0.16243744 C65.91041011 -0.16546643 68.07496384 -0.17350323 70.23948097 -0.18662262 C73.26790655 -0.20366686 76.29576474 -0.20180663 79.32421875 -0.1953125 C80.21947266 -0.20452728 81.11472656 -0.21374207 82.03710938 -0.22323608 C87.89214216 -0.18388205 91.2814822 0.76398066 95.66870117 4.84863281 C97.41841807 8.25597624 97.65455845 11.46964594 96.85620117 15.16113281 C94.32166461 18.38067926 92.74322812 19.86545716 88.85620117 21.16113281 C87.51183003 21.2589604 86.16323794 21.30448595 84.81535339 21.31503296 C83.99531326 21.32363342 83.17527313 21.33223389 82.3303833 21.34109497 C80.98614288 21.34748489 80.98614288 21.34748489 79.61474609 21.35400391 C78.66809586 21.3621814 77.72144562 21.37035889 76.74610901 21.37878418 C73.60963575 21.40362119 70.47320766 21.42014894 67.33666992 21.43457031 C66.26571894 21.43989399 65.19476795 21.44521767 64.09136391 21.45070267 C58.42403504 21.47742548 52.75672815 21.49680414 47.08935547 21.51123047 C41.2347764 21.52788617 35.38075937 21.5726746 29.52639294 21.62360191 C25.02508391 21.65724662 20.52390885 21.66880481 16.02248573 21.67445755 C13.86430879 21.68117646 11.70614086 21.69641501 9.54808617 21.72034836 C6.52687002 21.75194563 3.50717765 21.75204468 0.48583984 21.74462891 C-0.40424774 21.76103424 -1.29433533 21.77743958 -2.21139526 21.79434204 C-6.49719917 21.75131078 -9.28237626 21.49471785 -12.68315125 18.74966431 C-15.53847582 15.74594381 -16.04775861 14.99348133 -16.51879883 10.91113281 C-16.02452587 5.96840323 -14.60551582 4.62284981 -11.14379883 1.16113281 C-7.71421187 -0.55366067 -3.77460616 0.00468141 0 0 Z " fill="#040404" transform="translate(67.143798828125,172.8388671875)"/>
<path d="M0 0 C0.98756287 -0.0087616 1.97512573 -0.01752319 2.99261475 -0.02655029 C6.25333742 -0.04853646 9.51270131 -0.03399354 12.7734375 -0.01708984 C15.04118103 -0.02045818 17.3089228 -0.02531094 19.57666016 -0.03158569 C24.32797443 -0.038956 29.07881852 -0.02824584 33.83007812 -0.00488281 C39.92023137 0.02360437 46.00928293 0.00720135 52.09939575 -0.02274513 C56.78174133 -0.04081342 61.46382575 -0.03506208 66.1461792 -0.02210617 C68.39166392 -0.0187709 70.63717237 -0.02286346 72.88262939 -0.03450394 C76.02135008 -0.04720428 79.15828717 -0.02784536 82.296875 0 C83.22481873 -0.01012115 84.15276245 -0.02024231 85.10882568 -0.03067017 C89.6307153 0.0436454 91.54403344 0.17789665 95.22045898 3.03115845 C97.30161436 5.85479769 97.85219063 7.17963744 97.8359375 10.64697266 C97.86042969 11.47197266 97.88492188 12.29697266 97.91015625 13.14697266 C96.78024635 16.8553949 94.44207353 18.81005979 91.1484375 20.64697266 C87.85191065 21.36111967 84.63835459 21.3311471 81.27514648 21.29394531 C80.29719116 21.30270691 79.31923584 21.31146851 78.31164551 21.32049561 C75.08881877 21.34244807 71.86737119 21.32795204 68.64453125 21.31103516 C66.40063718 21.31440419 64.15674489 21.31925754 61.91285706 21.32553101 C57.21459546 21.33289651 52.51680973 21.32220563 47.81860352 21.29882812 C41.79685617 21.27032474 35.77622226 21.2867572 29.75451565 21.31669044 C25.12278349 21.3347577 20.49131538 21.32900816 15.85957527 21.31605148 C13.63921031 21.31271677 11.41882136 21.31680679 9.19848442 21.32844925 C6.09578808 21.34114977 2.99489593 21.32179136 -0.10766602 21.29394531 C-1.48319893 21.30912704 -1.48319893 21.30912704 -2.88652039 21.32461548 C-7.38380582 21.24984498 -9.26247522 21.10483681 -12.91905212 18.26278687 C-15.01556262 15.4249848 -15.53100077 14.13102185 -15.4765625 10.64697266 C-15.48945313 9.82197266 -15.50234375 8.99697266 -15.515625 8.14697266 C-13.36109219 0.03579032 -7.05625249 -0.0769631 0 0 Z " fill="#010101" transform="translate(171.8515625,45.35302734375)"/>
<path d="M0 0 C12.69122429 -0.0694916 25.38240335 -0.12280712 38.07377911 -0.15543652 C43.96681625 -0.1710965 49.85972329 -0.1923411 55.75268555 -0.22631836 C61.43906243 -0.25889955 67.1253141 -0.27685051 72.81177711 -0.28463173 C74.98192122 -0.29017743 77.15205843 -0.30100673 79.32214928 -0.31719017 C82.3603436 -0.33894765 85.39801968 -0.34196759 88.4362793 -0.34057617 C89.78387329 -0.35675491 89.78387329 -0.35675491 91.15869141 -0.3732605 C95.92070425 -0.34964121 99.16666959 -0.15061968 103 3 C105.66836411 7.00254616 105.8340238 10.29313299 105 15 C102.81840855 17.75569447 101.12822506 19.43588747 98 21 C95.63668171 21.1963612 93.29807379 21.33552116 90.93017578 21.4309082 C89.83675873 21.47931602 89.83675873 21.47931602 88.72125244 21.52870178 C81.9373288 21.81320009 75.15056246 21.98340616 68.36216927 22.11837482 C63.81194335 22.21088284 59.2699628 22.34045057 54.72412109 22.5637207 C22.41349853 24.11197592 22.41349853 24.11197592 13.03027344 16.48974609 C8.01517523 11.87331721 3.6047641 6.79748261 0 1 C0 0.67 0 0.34 0 0 Z " fill="#050505" transform="translate(164,86)"/>
<path d="M0 0 C7.3281386 -0.09288522 14.65614923 -0.16385817 21.98475838 -0.20724869 C25.38816318 -0.22807946 28.79116375 -0.25631258 32.19433594 -0.30175781 C36.11127806 -0.3537335 40.02805935 -0.37298269 43.9453125 -0.390625 C45.16115021 -0.41127014 46.37698792 -0.43191528 47.62966919 -0.45318604 C58.23430229 -0.45599469 58.23430229 -0.45599469 63 4 C64.73765543 7.47531087 64.59585352 11.2088001 64 15 C61.47031526 18.28175318 59.92268669 19.69243777 56 21 C54.48092376 21.08669529 52.95830999 21.117694 51.43676758 21.11352539 C50.51603958 21.11344986 49.59531158 21.11337433 48.64668274 21.11329651 C47.65597275 21.10813522 46.66526276 21.10297394 45.64453125 21.09765625 C44.62775803 21.0962413 43.6109848 21.09482635 42.56340027 21.09336853 C39.31307036 21.08776707 36.06280912 21.07521432 32.8125 21.0625 C30.61002704 21.05748519 28.40755299 21.05292225 26.20507812 21.04882812 C20.80336196 21.03779717 15.40168588 21.02105762 10 21 C9.95178604 20.31147949 9.90357208 19.62295898 9.85389709 18.91357422 C9.77973068 18.0113916 9.70556427 17.10920898 9.62915039 16.1796875 C9.56031143 15.28491699 9.49147247 14.39014648 9.42054749 13.46826172 C8.8094073 9.88138036 7.16132529 8.31887473 4.4375 6 C2.93779754 4.68980752 1.45289885 3.36190923 0 2 C0 1.34 0 0.68 0 0 Z " fill="#030303" transform="translate(205,126)"/>
<path d="M0 0 C6.29956251 -0.09196442 12.59678476 -0.17156372 18.89648438 -0.21972656 C21.03816634 -0.23980888 23.1797937 -0.26708037 25.32128906 -0.30175781 C28.40443415 -0.35042398 31.48685262 -0.3730029 34.5703125 -0.390625 C35.52366486 -0.41127014 36.47701721 -0.43191528 37.45925903 -0.45318604 C43.14983644 -0.4550953 46.53882933 0.09812714 51 4 C53.51366887 7.77050331 53.13806124 9.5115159 52.546875 13.83984375 C51.78581987 16.84601151 50.50881929 18.22906874 48 20 C45.16987873 20.94337376 43.45700082 21.12172829 40.52856445 21.11352539 C39.17750359 21.11341209 39.17750359 21.11341209 37.79914856 21.11329651 C36.83031235 21.10813522 35.86147614 21.10297394 34.86328125 21.09765625 C33.37141548 21.09553383 33.37141548 21.09553383 31.84941101 21.09336853 C28.67041018 21.08776761 25.49147957 21.07521496 22.3125 21.0625 C20.15820414 21.05748512 18.00390718 21.05292219 15.84960938 21.04882812 C10.56635737 21.03864845 5.28325738 21.01907313 0 21 C0 14.07 0 7.14 0 0 Z " fill="#050505" transform="translate(215,166)"/>
<path d="M0 0 C2.41892956 0.05495347 4.83441583 0.06152717 7.25390625 0.06079102 C8.80081087 0.0755344 10.3476923 0.09301849 11.89453125 0.11352539 C12.61234772 0.11686386 13.33016418 0.12020233 14.06973267 0.12364197 C19.50777082 0.27721025 22.78139345 1.60585634 26.60546875 5.42993164 C28.23859035 8.43831353 28.26717125 10.23027094 27.79296875 13.61743164 C25.65969636 17.57922321 24.04241719 20.07743718 19.79296875 21.61743164 C17.1457903 21.84451359 14.60565803 21.96896403 11.95703125 21.98852539 C11.20005951 21.99755386 10.44308777 22.00658234 9.66317749 22.0158844 C8.06455425 22.03036457 6.46587204 22.03926809 4.8671875 22.04296875 C2.43256853 22.05486033 0.00049028 22.10405667 -2.43359375 22.15454102 C-3.99087311 22.16400694 -5.54816797 22.17124117 -7.10546875 22.17602539 C-7.8275351 22.19555771 -8.54960144 22.21509003 -9.29354858 22.23521423 C-15.03124652 22.18448092 -17.3335905 20.5422963 -21.20703125 16.61743164 C-22.85719453 13.31710507 -22.94007067 10.15907811 -22.20703125 6.61743164 C-17.67970721 -1.43255098 -7.98029168 -0.18795344 0 0 Z " fill="#060606" transform="translate(73.20703125,132.382568359375)"/>
<path d="M0 0 C5.62970625 3.37782375 5.62970625 3.37782375 8.11328125 5.8828125 C8.9012207 6.67365234 8.9012207 6.67365234 9.70507812 7.48046875 C10.23552734 8.02316406 10.76597656 8.56585938 11.3125 9.125 C11.86228516 9.67542969 12.41207031 10.22585937 12.97851562 10.79296875 C17 14.85941382 17 14.85941382 17 16 C11.39 16 5.78 16 0 16 C0 10.72 0 5.44 0 0 Z " fill="#F5F5F5" transform="translate(146,125)"/>
<path d="M0 0 C18.81 0 37.62 0 57 0 C57 0.33 57 0.66 57 1 C56.34045319 1.00808685 55.68090637 1.01617371 55.00137329 1.02450562 C48.15598793 1.11035572 41.31089871 1.20985003 34.46582031 1.31738281 C31.90890463 1.3557398 29.35193375 1.39058062 26.79492188 1.421875 C23.12610091 1.46737976 19.45766227 1.5253981 15.7890625 1.5859375 C14.64007477 1.59748871 13.49108704 1.60903992 12.30728149 1.62094116 C10.71585831 1.6507457 10.71585831 1.6507457 9.09228516 1.68115234 C7.68663803 1.70113785 7.68663803 1.70113785 6.25259399 1.7215271 C3.79964849 1.79034466 3.79964849 1.79034466 2 4 C1.34 2.68 0.68 1.36 0 0 Z " fill="#222222" transform="translate(205,126)"/>
</svg>
