<?xml version="1.0" encoding="UTF-8"?>
<svg version="1.1" xmlns="http://www.w3.org/2000/svg" width="256" height="256">
<path d="M0 0 C0.66209473 -0.00095673 1.32418945 -0.00191345 2.00634766 -0.00289917 C3.40852961 -0.00358076 4.8107147 -0.00172792 6.21289062 0.00244141 C8.36595713 0.00779004 10.51881502 0.0024958 12.671875 -0.00390625 C14.03125046 -0.00324546 15.3906258 -0.00196429 16.75 0 C18.61785156 0.00169189 18.61785156 0.00169189 20.5234375 0.00341797 C23.375 0.1328125 23.375 0.1328125 24.375 1.1328125 C24.47007821 3.71920288 24.50056376 6.2787981 24.48852539 8.86547852 C24.48867142 9.6751709 24.48881744 10.48486328 24.4889679 11.3190918 C24.48826854 14.00832758 24.4804751 16.69749499 24.47265625 19.38671875 C24.47079215 21.24616966 24.46936821 23.10562106 24.46836853 24.96507263 C24.46454271 29.86910346 24.45471188 34.77310486 24.44366455 39.67712402 C24.43345181 44.67732342 24.42887121 49.67752756 24.42382812 54.67773438 C24.41308967 64.49610671 24.39601248 74.31445716 24.375 84.1328125 C25.4122522 84.12495728 25.4122522 84.12495728 26.47045898 84.11694336 C29.58446352 84.0962375 32.69845361 84.08317287 35.8125 84.0703125 C36.90111328 84.06193359 37.98972656 84.05355469 39.11132812 84.04492188 C40.14580078 84.04169922 41.18027344 84.03847656 42.24609375 84.03515625 C43.20443115 84.02991943 44.16276855 84.02468262 45.15014648 84.01928711 C47.375 84.1328125 47.375 84.1328125 48.375 85.1328125 C48.5 88.1328125 48.5 88.1328125 48.375 91.1328125 C46.59336203 92.91445047 43.97572085 92.25897346 41.56689453 92.25979614 C40.30484192 92.26261597 39.04278931 92.26543579 37.74249268 92.26834106 C36.33093248 92.26639647 34.91937242 92.26434828 33.5078125 92.26220703 C32.03147336 92.26356102 30.55513455 92.26534094 29.07879639 92.26751709 C25.05824716 92.27209169 21.03772347 92.27030176 17.01717377 92.267138 C12.81890288 92.26461454 8.62063425 92.2669519 4.42236328 92.26852417 C-2.62923579 92.27034591 -9.68082439 92.26793945 -16.73242188 92.26318359 C-24.8968305 92.25774097 -33.06121416 92.25950362 -41.22562218 92.26501 C-48.22262982 92.26954102 -55.21962993 92.27019173 -62.21663857 92.26757133 C-66.40124547 92.26600849 -70.58584062 92.26581497 -74.77044678 92.26910782 C-78.70363286 92.27198637 -82.63678661 92.27001114 -86.56996918 92.26421356 C-88.0176259 92.26288588 -89.46528532 92.26328022 -90.91294098 92.26547623 C-92.88092454 92.26818737 -94.84891402 92.26419323 -96.81689453 92.25979614 C-97.9208255 92.25941912 -99.02475647 92.25904209 -100.16213989 92.25865364 C-102.625 92.1328125 -102.625 92.1328125 -103.625 91.1328125 C-103.75 88.1328125 -103.75 88.1328125 -103.625 85.1328125 C-102.625 84.1328125 -102.625 84.1328125 -100.40014648 84.01928711 C-98.96264038 84.02714233 -98.96264038 84.02714233 -97.49609375 84.03515625 C-95.94438477 84.03999023 -95.94438477 84.03999023 -94.36132812 84.04492188 C-93.27271484 84.05330078 -92.18410156 84.06167969 -91.0625 84.0703125 C-89.4237793 84.07708008 -89.4237793 84.07708008 -87.75195312 84.08398438 C-85.04291505 84.09581424 -82.33398401 84.11229707 -79.625 84.1328125 C-79.62722061 83.49610123 -79.62944122 82.85938995 -79.63172913 82.2033844 C-79.6537804 75.60165974 -79.66890593 68.99994546 -79.67993164 62.39819336 C-79.68497356 59.93139217 -79.69180691 57.46459398 -79.70043945 54.99780273 C-79.71251125 51.46076721 -79.71822956 47.92377105 -79.72265625 44.38671875 C-79.72781754 43.27631729 -79.73297882 42.16591583 -79.73829651 41.02186584 C-79.73840981 39.49039162 -79.73840981 39.49039162 -79.73852539 37.92797852 C-79.740746 37.02418961 -79.74296661 36.1204007 -79.74525452 35.18922424 C-79.625 33.1328125 -79.625 33.1328125 -78.625 32.1328125 C-76.41849344 32.03268849 -74.20877614 32.0020007 -72 32 C-71.33790527 31.99904327 -70.67581055 31.99808655 -69.99365234 31.99710083 C-68.59147039 31.99641924 -67.1892853 31.99827208 -65.78710938 32.00244141 C-63.63404287 32.00779004 -61.48118498 32.0024958 -59.328125 31.99609375 C-57.96874954 31.99675454 -56.6093742 31.99803571 -55.25 32 C-53.38214844 32.00169189 -53.38214844 32.00169189 -51.4765625 32.00341797 C-48.625 32.1328125 -48.625 32.1328125 -47.625 33.1328125 C-47.53166295 34.72892232 -47.50754628 36.32914678 -47.51147461 37.92797852 C-47.51155014 38.94896133 -47.51162567 39.96994415 -47.51170349 41.02186584 C-47.51686478 42.1322673 -47.52202606 43.24266876 -47.52734375 44.38671875 C-47.5287587 45.51730209 -47.53017365 46.64788544 -47.53163147 47.81272888 C-47.53724981 51.44028315 -47.54980542 55.06777674 -47.5625 58.6953125 C-47.56751264 61.14778557 -47.57207595 63.6002596 -47.57617188 66.05273438 C-47.5872252 72.07944795 -47.60398116 78.10612589 -47.625 84.1328125 C-46.305 84.1328125 -44.985 84.1328125 -43.625 84.1328125 C-43.62722061 83.1954274 -43.62944122 82.2580423 -43.63172913 81.29225159 C-43.65196143 72.47759465 -43.66697256 63.6629424 -43.67681217 54.84826756 C-43.68204078 50.31607156 -43.68913801 45.78389423 -43.70043945 41.25170898 C-43.71126914 36.8815842 -43.71727701 32.51147742 -43.71987724 28.14134026 C-43.72173135 26.47030287 -43.72535168 24.79926653 -43.73073006 23.12823677 C-43.73794159 20.79583699 -43.7389909 18.46351257 -43.73852539 16.13110352 C-43.74212067 15.4333934 -43.74571594 14.73568329 -43.74942017 14.01683044 C-43.73905216 9.24686466 -43.73905216 9.24686466 -42.625 8.1328125 C-40.41849344 8.03268849 -38.20877614 8.0020007 -36 8 C-35.33790527 7.99904327 -34.67581055 7.99808655 -33.99365234 7.99710083 C-32.59147039 7.99641924 -31.1892853 7.99827208 -29.78710938 8.00244141 C-27.63404287 8.00779004 -25.48118498 8.0024958 -23.328125 7.99609375 C-21.96874954 7.99675454 -20.6093742 7.99803571 -19.25 8 C-17.38214844 8.00169189 -17.38214844 8.00169189 -15.4765625 8.00341797 C-12.625 8.1328125 -12.625 8.1328125 -11.625 9.1328125 C-11.53007278 11.47535032 -11.49940209 13.78827354 -11.51147461 16.13110352 C-11.51132858 16.86276733 -11.51118256 17.59443115 -11.5110321 18.3482666 C-11.51173133 20.77778034 -11.51952415 23.20721833 -11.52734375 25.63671875 C-11.5292079 27.31680764 -11.53063181 28.99689707 -11.53163147 30.67698669 C-11.53545693 35.10754893 -11.54528744 39.5380786 -11.55633545 43.96862793 C-11.56654897 48.48624226 -11.57112896 53.00386184 -11.57617188 57.52148438 C-11.58690969 66.39194143 -11.60398644 75.26237426 -11.625 84.1328125 C-10.305 84.1328125 -8.985 84.1328125 -7.625 84.1328125 C-7.62722061 83.09520279 -7.62944122 82.05759308 -7.63172913 80.98854065 C-7.65196028 71.23204979 -7.66697201 61.47556317 -7.67681217 51.71905613 C-7.68204107 46.7025878 -7.68913883 41.68613635 -7.70043945 36.66967773 C-7.7112681 31.83271556 -7.71727679 26.99576966 -7.71987724 22.15879631 C-7.72173153 20.30912965 -7.72535222 18.45946393 -7.73073006 16.60980415 C-7.7379402 14.02834236 -7.73899095 11.44694868 -7.73852539 8.86547852 C-7.74212067 8.09296249 -7.74571594 7.32044647 -7.74942017 6.52452087 C-7.73571093 -0.45393361 -6.78906724 0.00614952 0 0 Z M0.375 8.1328125 C0.375 33.2128125 0.375 58.2928125 0.375 84.1328125 C5.655 84.1328125 10.935 84.1328125 16.375 84.1328125 C16.375 59.0528125 16.375 33.9728125 16.375 8.1328125 C11.095 8.1328125 5.815 8.1328125 0.375 8.1328125 Z M-35.625 16.1328125 C-35.625 38.5728125 -35.625 61.0128125 -35.625 84.1328125 C-30.345 84.1328125 -25.065 84.1328125 -19.625 84.1328125 C-19.625 61.6928125 -19.625 39.2528125 -19.625 16.1328125 C-24.905 16.1328125 -30.185 16.1328125 -35.625 16.1328125 Z M-71.625 40.1328125 C-71.625 54.6528125 -71.625 69.1728125 -71.625 84.1328125 C-66.345 84.1328125 -61.065 84.1328125 -55.625 84.1328125 C-55.625 69.6128125 -55.625 55.0928125 -55.625 40.1328125 C-60.905 40.1328125 -66.185 40.1328125 -71.625 40.1328125 Z " fill="#000000" transform="translate(155.625,111.8671875)"/>
<path d="M0 0 C0.73541016 0.00202423 1.47082031 0.00404846 2.22851562 0.00613403 C2.97939453 0.00517731 3.73027344 0.00422058 4.50390625 0.00323486 C6.09440189 0.00255315 7.6849003 0.00440682 9.27539062 0.00857544 C11.71816217 0.01392386 14.16074984 0.00863019 16.60351562 0.00222778 C18.1451827 0.00288857 19.68684966 0.00416973 21.22851562 0.00613403 C21.96392578 0.0041098 22.69933594 0.00208557 23.45703125 0 C28.61356402 0.02399493 28.61356402 0.02399493 29.72851562 1.13894653 C30.22662706 6.07833198 29.35255523 8.36214677 26.29882812 12.21316528 C25.58597656 13.12775513 24.873125 14.04234497 24.13867188 14.98464966 C23.38457031 15.92244263 22.63046875 16.8602356 21.85351562 17.82644653 C20.37661875 19.70508996 18.9000419 21.58398504 17.42382812 23.46316528 C16.43406982 24.70199463 16.43406982 24.70199463 15.42431641 25.96585083 C14.12055262 27.63656799 12.90404769 29.37564843 11.72851562 31.13894653 C8.60351562 31.32644653 8.60351562 31.32644653 5.72851562 31.13894653 C4.41601562 29.13894653 4.41601562 29.13894653 3.72851562 26.13894653 C4.75512695 24.09597778 4.75512695 24.09597778 6.18554688 21.95144653 C6.65581299 21.23601685 7.1260791 20.52058716 7.6105957 19.78347778 C8.16396606 18.96943481 8.16396606 18.96943481 8.72851562 18.13894653 C7.88993011 18.56490112 7.0513446 18.99085571 6.18734741 19.42971802 C-1.72173518 23.44511146 -9.63714711 27.44777028 -17.55890846 31.43809509 C-21.63123245 33.48990357 -25.70120638 35.54611037 -29.76611328 37.61257935 C-33.69009236 39.60719842 -37.61984211 41.58998607 -41.55384445 43.5647583 C-43.05263495 44.31969059 -44.549309 45.07884013 -46.04378128 45.84228516 C-48.1397639 46.9120985 -50.24281667 47.96657761 -52.34814453 49.01785278 C-52.9624231 49.33577789 -53.57670166 49.653703 -54.20959473 49.98126221 C-58.04652571 51.87246514 -61.00410057 52.55690482 -65.27148438 52.13894653 C-66.27148438 51.13894653 -66.27148438 51.13894653 -66.33398438 48.07644653 C-66.31335938 47.10707153 -66.29273437 46.13769653 -66.27148438 45.13894653 C-51.01015846 36.99196669 -35.56794207 29.22760563 -20.08398438 21.51394653 C-17.66515365 20.30733781 -15.24663599 19.10010223 -12.828125 17.89285278 C-6.97698767 14.97272248 -1.12470835 12.05489184 4.72851562 9.13894653 C4.02984375 9.08996216 3.33117187 9.04097778 2.61132812 8.99050903 C1.70125 8.91574341 0.79117188 8.84097778 -0.14648438 8.76394653 C-1.05140625 8.69433716 -1.95632812 8.62472778 -2.88867188 8.55300903 C-5.27148438 8.13894653 -5.27148438 8.13894653 -7.27148438 6.13894653 C-6.56399089 0.33749994 -5.73024629 0.02666459 0 0 Z " fill="#000000" transform="translate(142.271484375,67.86105346679688)"/>
</svg>
